<svg xmlns="http://www.w3.org/2000/svg" width="375" height="248" viewBox="0 0 375 248" fill="none"><path d="M175 12.5H336V81.5H175V12.5Z" fill="url(#paint0_linear_2711_713)"></path><path d="M367 46.589C367 65.2735 351.854 80.4202 333.169 80.4202C314.485 80.4202 299.338 65.2735 299.338 46.589C299.338 27.9046 314.485 12.7578 333.169 12.7578C351.854 12.7578 367 27.9046 367 46.589Z" fill="white"></path><path fill-rule="evenodd" clip-rule="evenodd" d="M333.169 79.4202C351.301 79.4202 366 64.7212 366 46.589C366 28.4568 351.301 13.7578 333.169 13.7578C315.037 13.7578 300.338 28.4568 300.338 46.589C300.338 64.7212 315.037 79.4202 333.169 79.4202ZM333.169 80.4202C351.854 80.4202 367 65.2735 367 46.589C367 27.9046 351.854 12.7578 333.169 12.7578C314.485 12.7578 299.338 27.9046 299.338 46.589C299.338 65.2735 314.485 80.4202 333.169 80.4202Z" fill="#E7E7E7"></path><g filter="url(#filter0_d_2711_713)"><path d="M362.994 46.589C362.994 63.0609 349.64 76.4139 333.169 76.4139C316.697 76.4139 303.344 63.0609 303.344 46.589C303.344 30.1172 316.697 16.7642 333.169 16.7642C349.64 16.7642 362.994 30.1172 362.994 46.589Z" fill="#E7EEFF"></path></g><path d="M333.235 65.5352C342.197 65.5352 349.462 58.2702 349.462 49.3084C349.462 40.3466 342.197 33.0815 333.235 33.0815C324.273 33.0815 317.008 40.3466 317.008 49.3084C317.008 58.2702 324.273 65.5352 333.235 65.5352Z" fill="#1C59FF"></path><path opacity="0.3" d="M333.235 65.5352C342.197 65.5352 349.462 58.2702 349.462 49.3084C349.462 40.3466 342.197 33.0815 333.235 33.0815C324.273 33.0815 317.008 40.3466 317.008 49.3084C317.008 58.2702 324.273 65.5352 333.235 65.5352Z" fill="black"></path><path d="M332.797 64.4972C341.759 64.4972 349.024 57.2321 349.024 48.2703C349.024 39.3085 341.759 32.0435 332.797 32.0435C323.835 32.0435 316.57 39.3085 316.57 48.2703C316.57 57.2321 323.835 64.4972 332.797 64.4972Z" fill="#1C59FF"></path><path d="M337.713 59.8995C344.134 57.1844 347.139 49.7779 344.424 43.3565C341.709 36.9352 334.302 33.9307 327.881 36.6459C321.459 39.361 318.455 46.7675 321.17 53.1889C323.885 59.6102 331.292 62.6147 337.713 59.8995Z" fill="white"></path><path d="M339.079 54.5506C342.548 51.0817 342.548 45.4574 339.079 41.9885C335.611 38.5195 329.986 38.5195 326.517 41.9885C323.048 45.4574 323.048 51.0817 326.517 54.5506C329.986 58.0195 335.611 58.0195 339.079 54.5506Z" fill="#1C59FF"></path><path d="M334.662 52.5707C337.036 51.5412 338.126 48.782 337.097 46.4076C336.067 44.0333 333.308 42.943 330.934 43.9725C328.56 45.0019 327.469 47.7612 328.499 50.1355C329.528 52.5099 332.287 53.6001 334.662 52.5707Z" fill="white"></path><path d="M345.352 35.1278L344.91 31.664L348.434 27.8931L348.688 31.6291L345.352 35.1278Z" fill="#455A64"></path><path d="M352.916 32.3715L349.34 32.0806L345.758 35.528L349.343 35.9121L352.916 32.3715Z" fill="#455A64"></path><path d="M349.216 30.9077C348.66 31.4733 348.101 32.0366 347.545 32.6023C346.207 33.9594 344.868 35.3141 343.53 36.6712C341.916 38.3053 340.306 39.9371 338.692 41.5712C337.291 42.9911 335.892 44.4087 334.491 45.8286C333.811 46.5177 333.099 47.1881 332.445 47.9004C332.435 47.9097 332.426 47.9213 332.414 47.9306C332.019 48.331 332.636 48.9479 333.031 48.5475C333.588 47.9818 334.146 47.4185 334.703 46.8529C336.041 45.4958 337.38 44.141 338.718 42.7839C340.331 41.1498 341.942 39.5181 343.555 37.884C344.956 36.464 346.355 35.0464 347.757 33.6265C348.437 32.9375 349.149 32.2671 349.803 31.5548C349.812 31.5455 349.822 31.5338 349.833 31.5245C350.229 31.1242 349.612 30.5073 349.216 30.9077Z" fill="#263238"></path><path d="M204 172.5H39.7693V239.5H204V172.5Z" fill="url(#paint1_linear_2711_713)"></path><path d="M9 206C9 224.502 24.2223 239.5 43 239.5C61.7777 239.5 77 224.502 77 206C77 187.498 61.7777 172.5 43 172.5C24.2223 172.5 9 187.498 9 206Z" fill="white"></path><path fill-rule="evenodd" clip-rule="evenodd" d="M43 238.5C24.7606 238.5 10 223.935 10 206C10 188.065 24.7606 173.5 43 173.5C61.2394 173.5 76 188.065 76 206C76 223.935 61.2394 238.5 43 238.5ZM43 239.5C24.2223 239.5 9 224.502 9 206C9 187.498 24.2223 172.5 43 172.5C61.7777 172.5 77 187.498 77 206C77 224.502 61.7777 239.5 43 239.5Z" fill="#E7E7E7"></path><g filter="url(#filter1_d_2711_713)"><path d="M12 205.5C12 222.069 25.6553 235.5 42.5 235.5C59.3447 235.5 73 222.069 73 205.5C73 188.931 59.3447 175.5 42.5 175.5C25.6553 175.5 12 188.931 12 205.5Z" fill="#DBF6EA"></path></g><path d="M272.199 121.72C272.199 168.431 234.332 206.298 187.621 206.298C140.91 206.298 103.043 168.431 103.043 121.72C103.043 75.0085 140.91 37.1416 187.621 37.1416C234.332 37.1416 272.199 75.0085 272.199 121.72Z" fill="#E6ECFA"></path><path d="M263.295 121.72C263.295 163.514 229.415 197.395 187.62 197.395C145.826 197.395 111.945 163.514 111.945 121.72C111.945 79.9253 145.826 46.0444 187.62 46.0444C229.415 46.0444 263.295 79.9253 263.295 121.72Z" fill="#1650DC"></path><mask id="mask0_2711_713" style="mask-type:alpha" maskUnits="userSpaceOnUse" x="111" y="46" width="153" height="152"><path d="M263.295 121.72C263.295 163.514 229.415 197.395 187.62 197.395C145.826 197.395 111.945 163.514 111.945 121.72C111.945 79.9253 145.826 46.0444 187.62 46.0444C229.415 46.0444 263.295 79.9253 263.295 121.72Z" fill="#1C59FF"></path></mask><g mask="url(#mask0_2711_713)"><path fill-rule="evenodd" clip-rule="evenodd" d="M153.539 70.9246C158.843 60.2323 165.432 51.9789 172.214 47.627L172.754 48.4686C166.182 52.6857 159.695 60.7637 154.434 71.369C149.178 81.9644 145.167 95.0404 143.518 109.202C140.22 137.526 146.375 170.14 170.844 195.938L170.118 196.626C145.399 170.564 139.201 137.631 142.525 109.086C144.186 94.8144 148.229 81.6267 153.539 70.9246Z" fill="#3C74FB"></path><path fill-rule="evenodd" clip-rule="evenodd" d="M140.927 71.7464C147.082 62.1419 154.46 54.9428 161.577 51.3843L162.024 52.2787C155.119 55.7313 147.863 62.7769 141.769 72.2859C135.68 81.7876 130.774 93.7157 128.546 106.891C124.092 133.225 130.335 164.546 159.248 191.464L158.567 192.196C129.388 165.03 123.055 133.362 127.56 106.724C129.811 93.4125 134.768 81.3582 140.927 71.7464Z" fill="#3C74FB"></path><path fill-rule="evenodd" clip-rule="evenodd" d="M164.58 71.4797C168.432 60.1425 173.392 51.2626 178.836 46.5566L179.49 47.3131C174.249 51.8439 169.36 60.5196 165.527 71.8014C161.699 83.0655 158.945 96.8638 157.933 111.571C155.906 141.002 160.856 173.974 178.009 197.546L177.2 198.134C159.854 174.297 154.9 141.054 156.935 111.503C157.953 96.719 160.722 82.8347 164.58 71.4797Z" fill="#3C74FB"></path><path fill-rule="evenodd" clip-rule="evenodd" d="M179.163 55.9803C180.488 51.4592 181.991 47.9786 183.673 45.9482L184.443 46.5863C182.898 48.451 181.441 51.7644 180.123 56.2614C178.81 60.7418 177.653 66.3393 176.677 72.7219C174.727 85.4859 173.512 101.352 173.24 117.622C172.968 133.891 173.638 150.552 175.452 164.905C177.269 179.279 180.226 191.267 184.485 198.247L183.631 198.768C179.254 191.593 176.279 179.42 174.46 165.03C172.638 150.618 171.967 133.909 172.24 117.605C172.513 101.301 173.73 85.389 175.689 72.5709C176.668 66.1625 177.834 60.5179 179.163 55.9803Z" fill="#3C74FB"></path><path fill-rule="evenodd" clip-rule="evenodd" d="M221.7 70.9246C216.395 60.2323 209.806 51.9789 203.024 47.627L202.484 48.4686C209.056 52.6857 215.543 60.7637 220.804 71.369C226.06 81.9644 230.071 95.0404 231.72 109.202C235.018 137.526 228.864 170.14 204.394 195.938L205.12 196.626C229.839 170.564 236.037 137.631 232.714 109.086C231.052 94.8144 227.009 81.6267 221.7 70.9246Z" fill="#3C74FB"></path><path fill-rule="evenodd" clip-rule="evenodd" d="M234.311 71.7464C228.156 62.1419 220.778 54.9428 213.661 51.3843L213.214 52.2787C220.119 55.7313 227.375 62.7769 233.469 72.2859C239.558 81.7876 244.464 93.7157 246.692 106.891C251.146 133.225 244.903 164.546 215.99 191.464L216.672 192.196C245.851 165.03 252.183 133.362 247.678 106.724C245.427 93.4125 240.471 81.3582 234.311 71.7464Z" fill="#3C74FB"></path><path fill-rule="evenodd" clip-rule="evenodd" d="M210.658 71.4797C206.806 60.1425 201.846 51.2626 196.403 46.5566L195.749 47.3131C200.989 51.8439 205.878 60.5196 209.711 71.8014C213.539 83.0655 216.293 96.8638 217.306 111.571C219.333 141.002 214.383 173.974 197.229 197.546L198.038 198.134C215.384 174.297 220.339 141.054 218.303 111.503C217.285 96.719 214.517 82.8347 210.658 71.4797Z" fill="#3C74FB"></path><path fill-rule="evenodd" clip-rule="evenodd" d="M196.075 55.9803C194.75 51.4592 193.248 47.9786 191.565 45.9482L190.795 46.5863C192.34 48.451 193.798 51.7644 195.115 56.2614C196.428 60.7418 197.586 66.3393 198.561 72.7219C200.511 85.4859 201.726 101.352 201.998 117.622C202.271 133.891 201.601 150.552 199.786 164.905C197.969 179.279 195.012 191.267 190.753 198.247L191.607 198.768C195.985 191.593 198.959 179.42 200.778 165.03C202.6 150.618 203.271 133.909 202.998 117.605C202.725 101.301 201.508 85.389 199.549 72.5709C198.57 66.1625 197.404 60.5179 196.075 55.9803Z" fill="#3C74FB"></path><path fill-rule="evenodd" clip-rule="evenodd" d="M187.119 199.398V45.3765H188.119V199.398H187.119Z" fill="#3C74FB"></path><path fill-rule="evenodd" clip-rule="evenodd" d="M233.023 59.4536H143.326V58.4536H233.023V59.4536Z" fill="#3C74FB"></path><path fill-rule="evenodd" clip-rule="evenodd" d="M252.61 79.4854L123.518 79.4854L123.518 78.4854L252.61 78.4854L252.61 79.4854Z" fill="#3C74FB"></path><path fill-rule="evenodd" clip-rule="evenodd" d="M264.184 100.853L111.943 100.853L111.943 99.8525L264.184 99.8525L264.184 100.853Z" fill="#3C74FB"></path><path fill-rule="evenodd" clip-rule="evenodd" d="M267.301 121.774L108.828 121.774L108.828 120.774L267.301 120.774L267.301 121.774Z" fill="#3C74FB"></path><path fill-rule="evenodd" clip-rule="evenodd" d="M267.301 142.696L108.828 142.696L108.828 141.696L267.301 141.696L267.301 142.696Z" fill="#3C74FB"></path><path fill-rule="evenodd" clip-rule="evenodd" d="M267.301 163.618L108.828 163.618L108.828 162.618L267.301 162.618L267.301 163.618Z" fill="#3C74FB"></path><path fill-rule="evenodd" clip-rule="evenodd" d="M267.301 184.54L108.828 184.54L108.828 183.54L267.301 183.54L267.301 184.54Z" fill="#3C74FB"></path></g><g filter="url(#filter2_d_2711_713)"><path d="M217.002 121.497C217.002 137.846 203.748 151.099 187.399 151.099C171.05 151.099 157.797 137.846 157.797 121.497C157.797 105.148 171.05 91.8945 187.399 91.8945C203.748 91.8945 217.002 105.148 217.002 121.497Z" fill="white"></path></g><path d="M217.002 121.497C217.002 137.846 203.748 151.099 187.399 151.099C171.05 151.099 157.797 137.846 157.797 121.497C157.797 105.148 171.05 91.8945 187.399 91.8945C203.748 91.8945 217.002 105.148 217.002 121.497Z" fill="white"></path><path d="M55 200.672C54.8424 193.793 49.3484 188.346 42.723 188.503C36.0975 188.667 30.8512 194.377 31.0032 201.256C31.1158 206.236 34.0317 210.462 38.1409 212.356C38.1747 213.834 38.2141 215.5 38.2141 215.5L48.7292 215.243C48.7292 215.243 48.7517 213.478 48.7405 211.906C52.557 209.743 55.107 205.5 54.9944 200.672H55Z" fill="#00C274"></path><path d="M42.6762 215.121C42.5651 211.112 42.7079 207.098 42.5228 203.089C42.4857 202.293 42.4381 201.497 42.3323 200.706C42.1895 199.591 41.8826 198.394 40.8351 197.845C39.8194 197.313 38.8354 197.928 38.3963 198.922C37.9783 199.866 37.9148 201.008 38.0947 202.024C38.465 204.078 39.8511 205.857 41.798 206.467C43.7343 207.076 45.9192 206.615 47.3582 205.099C48.739 203.65 49.4162 201.272 48.7284 199.311C48.4427 198.504 47.829 197.659 46.9614 197.521C45.8451 197.34 45.1468 198.35 44.877 199.339C44.5966 200.371 44.5702 201.497 44.512 202.562C44.4432 203.732 44.4114 204.902 44.3903 206.071C44.3427 208.465 44.3533 210.86 44.3109 213.254C44.3004 213.803 44.2845 214.347 44.2686 214.896C44.2527 215.33 44.9035 215.428 44.9193 214.989C45.0622 210.794 44.9193 206.593 45.1786 202.403C45.2368 201.453 45.2526 200.443 45.5119 199.526C45.6441 199.053 45.8663 198.493 46.3319 198.279C46.6916 198.109 47.0778 198.202 47.3794 198.449C48.0512 198.982 48.2893 199.915 48.3316 200.756C48.3792 201.706 48.1465 202.672 47.7074 203.501C46.8133 205.209 45.0357 206.187 43.1788 206.055C41.3219 205.923 39.7294 204.753 39.0311 202.952C38.6925 202.079 38.5761 201.124 38.719 200.196C38.8565 199.322 39.375 197.961 40.4595 198.427C41.4277 198.839 41.5917 200.069 41.7028 201.014C41.7874 201.733 41.8297 202.458 41.8668 203.177C42.0361 206.818 41.9461 210.47 41.999 214.116C42.0043 214.478 42.0096 214.846 42.0202 215.209C42.0308 215.648 42.6868 215.566 42.6709 215.126L42.6762 215.121Z" fill="white"></path><path d="M41.418 221.722C41.418 221.722 41.8668 222 42.1373 222.329C42.2754 222.502 42.4941 222.595 42.7128 222.589L44.8765 222.537C45.1182 222.531 45.3426 222.404 45.475 222.202C45.6303 221.959 45.9066 221.676 46.2001 221.607L41.418 221.722Z" fill="#455A64"></path><path d="M38.9258 215.733C38.9258 215.779 39.5128 219.158 39.7314 220.446C39.8235 220.978 40.163 221.44 40.6579 221.653C40.8363 221.728 41.0435 221.78 41.2794 221.775C42.2059 221.752 46.0097 221.659 46.0097 221.659C46.0097 221.659 47.247 221.63 47.5002 220.637C47.7706 219.591 48.231 215.508 48.231 215.508L38.9258 215.733Z" fill="#263238"></path><path d="M47.7929 220.175L39.5522 220.406C39.4256 220.406 39.3163 220.308 39.3105 220.175V220.152C39.3105 220.025 39.4084 219.915 39.535 219.909L47.7756 219.678C47.9022 219.678 48.0115 219.776 48.0173 219.909V219.932C48.0173 220.065 47.9195 220.169 47.7929 220.175Z" fill="#E0E0E0"></path><path d="M47.7934 220.175C47.7934 220.175 47.8682 220.181 47.9488 220.094C47.9891 220.054 48.0178 219.979 48.0063 219.892C48.0063 219.811 47.9373 219.713 47.8279 219.696C47.3791 219.696 46.7173 219.73 45.9001 219.753C44.2658 219.8 42.0158 219.869 39.5355 219.944C39.4722 219.944 39.4089 219.979 39.3744 220.036C39.3571 220.065 39.3456 220.094 39.3456 220.129C39.3456 220.164 39.3456 220.198 39.3571 220.227C39.3744 220.291 39.4262 220.337 39.4895 220.354C39.547 220.366 39.6334 220.354 39.7024 220.354C40.0074 220.348 40.3009 220.337 40.5944 220.331C41.1813 220.314 41.7453 220.302 42.2862 220.285C43.3623 220.256 44.3291 220.233 45.1463 220.216C45.9577 220.198 46.6137 220.187 47.0741 220.175C47.2985 220.175 47.4711 220.175 47.5977 220.169C47.6553 220.169 47.7013 220.169 47.7359 220.169C47.7013 220.169 47.6553 220.169 47.5977 220.175C47.4711 220.175 47.2985 220.187 47.0741 220.198C46.6137 220.216 45.9577 220.239 45.1463 220.268C44.3291 220.291 43.3623 220.325 42.2862 220.354C41.7453 220.371 41.1813 220.389 40.5944 220.406C40.3009 220.412 40.0016 220.423 39.7024 220.429H39.5873C39.5528 220.429 39.5067 220.435 39.4607 220.429C39.3744 220.406 39.2996 220.337 39.2708 220.25C39.2535 220.204 39.2535 220.164 39.2593 220.123C39.2593 220.077 39.2766 220.031 39.2996 219.996C39.3456 219.921 39.4319 219.869 39.524 219.863C42.01 219.8 44.2543 219.742 45.8886 219.696C46.7058 219.678 47.3618 219.655 47.8222 219.661C47.943 219.69 48.0121 219.8 48.0178 219.886C48.0293 219.979 47.9948 220.054 47.9488 220.1C47.8567 220.187 47.7761 220.164 47.7819 220.169L47.7934 220.175Z" fill="#263238"></path><path d="M39.3394 218.842L47.9277 218.603C48.0543 218.599 48.1664 218.7 48.1701 218.833L48.1707 218.856C48.1743 218.983 48.0737 219.096 47.9414 219.099L39.3531 219.339C39.2265 219.342 39.1144 219.241 39.1107 219.108L39.1101 219.085C39.1064 218.953 39.2071 218.846 39.3394 218.842Z" fill="#E0E0E0"></path><path d="M47.9439 219.1C47.9439 219.1 48.0187 219.106 48.1051 219.019C48.1453 218.973 48.1684 218.898 48.1569 218.811C48.1453 218.725 48.0705 218.632 47.9554 218.627C47.4778 218.644 46.793 218.667 45.9528 218.696C44.2552 218.748 41.9188 218.817 39.3408 218.892C39.2717 218.892 39.2084 218.933 39.1739 218.991C39.1566 219.019 39.1509 219.054 39.1509 219.089C39.1509 219.129 39.1509 219.158 39.1681 219.193C39.1912 219.256 39.2545 219.302 39.3178 219.308C39.3811 219.308 39.4731 219.308 39.5479 219.308C39.8644 219.302 40.1694 219.291 40.4744 219.285C41.0844 219.268 41.6714 219.256 42.2296 219.239C43.346 219.21 44.3531 219.187 45.2047 219.164C46.0449 219.146 46.7297 219.129 47.2073 219.123C47.4375 219.123 47.6217 219.118 47.754 219.118C47.8116 219.118 47.8576 219.118 47.8979 219.118C47.9324 219.118 47.9439 219.118 47.9439 219.118C47.9439 219.118 47.9267 219.118 47.8979 219.118C47.8634 219.118 47.8173 219.118 47.754 219.123C47.6217 219.123 47.4433 219.135 47.2073 219.146C46.7297 219.164 46.0449 219.187 45.2047 219.216C44.3588 219.245 43.3517 219.274 42.2296 219.308C41.6714 219.326 41.0844 219.343 40.4744 219.36C40.1694 219.372 39.8587 219.377 39.5479 219.389C39.4674 219.389 39.3983 219.401 39.3063 219.389C39.2142 219.377 39.1336 219.314 39.0933 219.222C39.0761 219.181 39.0703 219.129 39.0703 219.089C39.0703 219.042 39.0818 218.996 39.1048 218.956C39.1509 218.875 39.243 218.817 39.335 218.817C41.9131 218.748 44.2495 218.69 45.9471 218.644C46.793 218.627 47.4778 218.609 47.9554 218.604C48.082 218.615 48.1684 218.725 48.1799 218.817C48.1914 218.91 48.1626 218.996 48.1166 219.042C48.0187 219.135 47.9382 219.112 47.9439 219.118V219.1Z" fill="#263238"></path><path d="M39.2009 217.778L48.0135 217.532C48.1401 217.528 48.2523 217.629 48.2559 217.762L48.2566 217.785C48.2602 217.918 48.1596 218.025 48.0273 218.029L39.2146 218.274C39.088 218.278 38.9759 218.177 38.9722 218.044L38.9714 218.015C38.9679 217.888 39.0684 217.775 39.2007 217.772L39.2009 217.778Z" fill="#E0E0E0"></path><path d="M48.0299 218.032C48.0299 218.032 48.1105 218.037 48.1968 217.945C48.2371 217.899 48.2601 217.818 48.2428 217.731C48.2313 217.645 48.145 217.552 48.0299 217.552C47.5408 217.569 46.8387 217.593 45.9813 217.621C44.2434 217.673 41.8552 217.743 39.2138 217.824C39.1448 217.824 39.0815 217.864 39.0469 217.928C39.0297 217.956 39.0239 217.991 39.0239 218.026C39.0239 218.066 39.0239 218.095 39.0412 218.13C39.07 218.193 39.1333 218.234 39.2023 218.239C39.2771 218.239 39.3634 218.239 39.4383 218.239C39.7605 218.228 40.077 218.222 40.3878 218.216C41.0093 218.199 41.6135 218.182 42.1832 218.17C43.3284 218.141 44.3585 218.118 45.2274 218.095C46.0906 218.078 46.7869 218.06 47.2818 218.049C47.5177 218.049 47.7076 218.043 47.84 218.043C47.8975 218.043 47.9493 218.043 47.9839 218.043C47.9493 218.043 47.8975 218.043 47.84 218.049C47.7076 218.049 47.5177 218.06 47.2818 218.072C46.7927 218.089 46.0906 218.112 45.2332 218.141C44.3642 218.17 43.3341 218.199 42.189 218.234C41.6135 218.251 41.015 218.268 40.3935 218.286C40.0828 218.297 39.7663 218.303 39.444 218.315C39.3634 218.315 39.2886 218.32 39.1966 218.315C39.1045 218.309 39.0124 218.245 38.9721 218.159C38.9491 218.118 38.9434 218.06 38.9434 218.02C38.9434 217.974 38.9549 217.922 38.9779 217.881C39.0239 217.795 39.116 217.737 39.2138 217.737C41.8552 217.668 44.2434 217.604 45.9813 217.558C46.8445 217.541 47.5465 217.523 48.0357 217.512C48.168 217.512 48.2601 217.621 48.2716 217.72C48.2889 217.812 48.2601 217.904 48.2141 217.951C48.1162 218.049 48.0299 218.026 48.0357 218.026L48.0299 218.032Z" fill="#263238"></path><path d="M38.9937 216.715L48.163 216.46C48.2895 216.456 48.4017 216.557 48.4054 216.69L48.406 216.713C48.4097 216.846 48.309 216.952 48.1767 216.956L39.0074 217.212C38.8808 217.215 38.7687 217.114 38.765 216.981L38.7644 216.958C38.7607 216.826 38.8614 216.719 38.9937 216.715Z" fill="#E0E0E0"></path><path d="M48.1806 216.958C48.1806 216.958 48.2611 216.969 48.3474 216.865C48.3877 216.813 48.4107 216.732 48.3877 216.64C48.3647 216.553 48.2726 216.461 48.146 216.478C47.6396 216.495 46.9145 216.519 46.0168 216.547C44.2156 216.599 41.7354 216.675 38.9962 216.755C38.9271 216.755 38.8581 216.802 38.8236 216.865C38.7948 216.929 38.8005 217.015 38.8293 217.073C38.8638 217.137 38.9329 217.171 39.0077 217.171C39.094 217.171 39.1746 217.171 39.2609 217.165C39.5947 217.154 39.9227 217.148 40.2449 217.137C40.8895 217.119 41.5167 217.102 42.1094 217.085C43.2949 217.056 44.3653 217.027 45.2687 217.004C46.1664 216.986 46.8915 216.969 47.3979 216.958C47.6454 216.958 47.841 216.952 47.9792 216.952C48.0425 216.952 48.0942 216.952 48.1288 216.952C48.0885 216.952 48.0425 216.952 47.9792 216.958C47.841 216.958 47.6454 216.969 47.3979 216.981C46.8915 216.998 46.1664 217.021 45.2687 217.05C44.371 217.079 43.3006 217.108 42.1094 217.148C41.5167 217.165 40.8895 217.183 40.2449 217.2C39.9227 217.212 39.5947 217.217 39.2609 217.229C39.1803 217.229 39.094 217.229 39.0077 217.235C38.9099 217.235 38.812 217.183 38.7603 217.096C38.7372 217.056 38.72 217.004 38.7257 216.958C38.7257 216.911 38.7257 216.859 38.7545 216.813C38.7948 216.721 38.8926 216.657 38.9962 216.657C41.7354 216.588 44.2156 216.519 46.0168 216.472C46.9145 216.455 47.6396 216.438 48.146 216.426C48.2841 216.415 48.3877 216.519 48.4107 216.617C48.4338 216.715 48.4107 216.807 48.359 216.859C48.3129 216.911 48.2611 216.929 48.2266 216.94C48.1921 216.946 48.1748 216.94 48.1748 216.94L48.1806 216.958Z" fill="#263238"></path><path d="M37.666 212.834C37.666 212.92 37.9135 214.994 38.0401 216.057C38.0861 216.449 38.3105 216.796 38.6443 216.998L39.1334 217.298L48.2775 217.073L48.7437 216.75C49.0717 216.524 49.2788 216.16 49.3019 215.762L49.4975 212.533L37.666 212.822V212.834Z" fill="#00C274"></path><g opacity="0.3"><path d="M39.8594 220.377C40.7456 220.556 41.626 220.55 42.5928 220.521C43.3754 220.498 44.1408 220.504 44.9867 220.464C45.6082 220.435 46.1779 220.389 46.7994 220.348C47.1102 220.325 47.4555 220.238 47.513 220.175L39.8594 220.377Z" fill="black"></path></g><g opacity="0.3"><path d="M39.5078 219.314C40.4631 219.493 41.4068 219.487 42.4542 219.453C43.2944 219.43 44.123 219.43 45.038 219.389C45.7055 219.36 46.3213 219.314 46.9888 219.268C47.3283 219.245 47.6966 219.158 47.7599 219.095L39.5136 219.308L39.5078 219.314Z" fill="black"></path></g><g opacity="0.3"><path d="M39.4785 218.251C40.4338 218.43 41.3775 218.425 42.4249 218.39C43.2651 218.367 44.0937 218.367 45.003 218.326C45.6705 218.297 46.2862 218.251 46.9538 218.205C47.2933 218.182 47.6616 218.095 47.7249 218.032L39.4785 218.245V218.251Z" fill="black"></path></g><g opacity="0.3"><path d="M39.4551 217.195C40.4103 217.374 41.3541 217.368 42.4014 217.333C43.2416 217.31 44.0703 217.31 44.9795 217.27C45.647 217.241 46.2628 217.195 46.9303 217.148C47.2699 217.125 47.6381 217.039 47.7014 216.975L39.4551 217.189V217.195Z" fill="black"></path></g><g opacity="0.3"><path d="M37.666 212.834C37.666 212.92 37.9135 214.994 38.0401 216.057C38.0861 216.449 38.3105 216.796 38.6443 216.998L39.1334 217.298L48.2775 217.073L48.7437 216.75C49.0717 216.524 49.2788 216.16 49.3019 215.762L49.4975 212.533L37.666 212.822V212.834Z" fill="black"></path></g><path d="M49.0882 216.224C49.0882 216.224 46.6425 216.322 43.627 216.398C40.6059 216.473 38.1602 216.513 38.1602 216.49C38.1602 216.467 40.6059 216.392 43.6213 216.317C46.6367 216.242 49.0882 216.201 49.0882 216.224Z" fill="#263238"></path><path d="M49.4343 212.487C49.4343 212.487 46.7814 212.608 43.5013 212.701C40.2211 212.793 37.5625 212.851 37.5625 212.822C37.5625 212.799 40.2154 212.701 43.4955 212.608C46.7699 212.516 49.4285 212.458 49.4343 212.487Z" fill="#263238"></path><path fill-rule="evenodd" clip-rule="evenodd" d="M177.672 121.21L183.019 132.002C183.054 132.073 183.09 132.145 183.126 132.216V132.225C183.913 133.7 185.469 134.711 187.257 134.711C189.215 134.711 190.887 133.504 191.584 131.805L199.596 115.693C198.827 117.231 197.244 118.286 195.411 118.286C194.293 118.286 193.274 117.893 192.469 117.24L189.421 115.112L186.077 121.46C185.29 122.944 183.734 123.955 181.937 123.955C178.933 123.955 177.743 121.353 177.752 121.353C177.752 121.353 177.717 121.299 177.672 121.21Z" fill="#0E1B3D"></path><path fill-rule="evenodd" clip-rule="evenodd" d="M195.41 108.942C197.994 108.942 200.087 111.035 200.087 113.619C200.087 116.203 197.994 118.295 195.41 118.295C194.293 118.295 193.274 117.901 192.469 117.249L189.42 115.121C190.064 113.905 190.636 112.662 191.262 111.464C192.04 109.971 193.604 108.942 195.41 108.942Z" fill="#00C274"></path><path fill-rule="evenodd" clip-rule="evenodd" d="M189.42 115.121L181.766 109.783C181.006 109.255 180.086 108.942 179.093 108.942C176.518 108.942 174.426 111.035 174.426 113.619C174.426 114.548 174.694 115.407 175.159 116.14C175.025 115.934 177.716 121.379 177.752 121.371C177.752 121.371 178.932 123.972 181.936 123.972C183.733 123.972 185.289 122.962 186.076 121.478L189.42 115.13V115.121Z" fill="#1C59FF"></path><path opacity="0.5" fill-rule="evenodd" clip-rule="evenodd" d="M40.9166 74.8245C49.1549 74.8245 55.8333 68.1461 55.8333 59.9079C55.8333 51.6696 49.1549 44.9912 40.9166 44.9912C32.6784 44.9912 26 51.6696 26 59.9079C26 68.1461 32.6784 74.8245 40.9166 74.8245ZM40.9166 75.8245C49.7072 75.8245 56.8333 68.6984 56.8333 59.9079C56.8333 51.1173 49.7072 43.9912 40.9166 43.9912C32.1261 43.9912 25 51.1173 25 59.9079C25 68.6984 32.1261 75.8245 40.9166 75.8245Z" fill="#00C274"></path><path d="M44.3184 64.6621V54.8228H45.5975V64.6621H44.3184Z" fill="#00C274"></path><path d="M41.8533 64.6621L40.8834 62.1601H36.5119L35.542 64.6621H34.2207L38.1143 54.8228H39.281L43.1886 64.6621H41.8533ZM36.9476 61.0216H40.4476L38.7046 56.5095L36.9476 61.0216Z" fill="#00C274"></path><path opacity="0.5" fill-rule="evenodd" clip-rule="evenodd" d="M297.254 208.5C307.22 208.5 315.254 200.64 315.254 191C315.254 181.36 307.22 173.5 297.254 173.5C287.287 173.5 279.254 181.36 279.254 191C279.254 200.64 287.287 208.5 297.254 208.5ZM297.254 209.5C307.747 209.5 316.254 201.217 316.254 191C316.254 180.783 307.747 172.5 297.254 172.5C286.76 172.5 278.254 180.783 278.254 191C278.254 201.217 286.76 209.5 297.254 209.5Z" fill="#1C59FF"></path><path d="M289.792 196.31C290.892 195.201 292 194.101 293.109 192.993C293.169 192.932 293.212 192.915 293.281 192.993C293.375 193.104 293.478 193.199 293.59 193.328C293.77 193.139 293.934 192.95 294.114 192.786C294.2 192.7 294.2 192.649 294.14 192.554C293.117 191.025 292.765 189.358 293.109 187.553C293.839 183.669 297.852 181.28 301.607 182.457C304.942 183.506 306.892 186.891 306.127 190.294C305.139 194.72 300.009 196.868 296.159 194.479C296.039 194.402 295.91 194.247 295.798 194.264C295.678 194.282 295.575 194.445 295.472 194.557C295.369 194.66 295.205 194.754 295.197 194.875C295.188 194.96 295.36 195.072 295.463 195.167C295.549 195.244 295.541 195.278 295.463 195.364C295.008 195.811 294.552 196.275 294.097 196.731C293.452 197.375 292.817 198.02 292.172 198.656C291.734 199.094 291.21 199.266 290.608 199.137C289.981 198.999 289.56 198.613 289.379 197.994C289.19 197.358 289.345 196.791 289.809 196.318L289.792 196.31ZM299.64 193.62C302.286 193.62 304.443 191.463 304.443 188.816C304.443 186.161 302.295 184.013 299.64 184.013C296.984 184.013 294.836 186.161 294.836 188.808C294.836 191.454 297.001 193.611 299.64 193.611V193.62Z" fill="#1C59FF"></path><path opacity="0.5" fill-rule="evenodd" clip-rule="evenodd" d="M340.916 117.295C347.032 117.295 351.916 112.554 351.916 106.795C351.916 101.036 347.032 96.2949 340.916 96.2949C334.8 96.2949 329.916 101.036 329.916 106.795C329.916 112.554 334.8 117.295 340.916 117.295ZM340.916 118.295C347.543 118.295 352.916 113.146 352.916 106.795C352.916 100.444 347.543 95.2949 340.916 95.2949C334.289 95.2949 328.916 100.444 328.916 106.795C328.916 113.146 334.289 118.295 340.916 118.295Z" fill="#1C59FF"></path><path d="M345.369 104.384C345.369 104.141 345.369 104.136 345.12 104.136C344.311 104.136 343.497 104.136 342.688 104.136C342.529 104.136 342.386 104.104 342.254 104.019C342.016 103.866 341.905 103.644 341.905 103.364C341.905 102.57 341.905 101.777 341.905 100.989C341.9 100.836 341.889 100.831 341.736 100.831C340.44 100.831 339.145 100.831 337.849 100.831C337.727 100.831 337.606 100.836 337.489 100.873C336.977 101.047 336.633 101.523 336.633 102.079C336.633 105.045 336.633 108.012 336.633 110.973C336.633 111.148 336.659 111.322 336.733 111.481C336.924 111.888 337.215 112.168 337.69 112.205C337.696 112.205 337.706 112.205 337.712 112.205C337.749 112.205 337.791 112.195 337.823 112.216H344.174C344.211 112.195 344.248 112.205 344.285 112.205C344.29 112.205 344.301 112.205 344.306 112.205C344.459 112.205 344.597 112.163 344.729 112.084C345.147 111.83 345.364 111.46 345.364 110.973C345.364 108.779 345.364 106.584 345.364 104.389L345.369 104.384ZM340.065 109.508C339.806 109.508 339.547 109.508 339.287 109.508C339.028 109.508 338.785 109.508 338.531 109.508C338.304 109.508 338.156 109.376 338.151 109.181C338.151 108.985 338.299 108.847 338.521 108.842C339.034 108.842 339.547 108.842 340.065 108.842C340.276 108.842 340.43 108.98 340.435 109.17C340.435 109.366 340.282 109.503 340.06 109.508H340.065ZM343.708 107.435C343.687 107.61 343.544 107.726 343.359 107.726C342.55 107.726 341.736 107.726 340.927 107.726C340.118 107.726 339.314 107.726 338.505 107.726C338.251 107.726 338.087 107.499 338.177 107.272C338.23 107.145 338.325 107.076 338.463 107.06C338.489 107.06 338.515 107.06 338.542 107.06C340.134 107.06 341.725 107.06 343.317 107.06C343.359 107.06 343.407 107.06 343.449 107.071C343.618 107.113 343.73 107.272 343.708 107.435ZM343.687 105.738C343.634 105.875 343.513 105.95 343.343 105.95C342.534 105.95 341.731 105.95 340.922 105.95C340.112 105.95 339.314 105.95 338.51 105.95C338.251 105.95 338.082 105.717 338.182 105.489C338.24 105.352 338.357 105.283 338.505 105.283C338.954 105.283 339.399 105.283 339.848 105.283C341.011 105.283 342.18 105.283 343.343 105.283C343.608 105.283 343.772 105.511 343.682 105.738H343.687Z" fill="url(#paint2_linear_2711_713)"></path><path d="M337.711 112.216C337.711 112.216 337.711 112.206 337.711 112.195C337.754 112.19 337.791 112.184 337.828 112.216H337.716H337.711Z" fill="url(#paint3_linear_2711_713)"></path><path d="M344.292 112.2C344.292 112.2 344.292 112.211 344.292 112.221H344.18C344.217 112.195 344.254 112.195 344.297 112.2H344.292Z" fill="url(#paint4_linear_2711_713)"></path><path d="M342.54 100.989C342.657 101.047 342.752 101.121 342.837 101.206C343.524 101.857 344.212 102.507 344.904 103.163C345.01 103.263 345.105 103.369 345.174 103.496C345.158 103.528 345.126 103.512 345.105 103.512C344.301 103.512 343.498 103.512 342.694 103.512C342.572 103.512 342.535 103.48 342.535 103.369C342.535 102.592 342.535 101.814 342.535 101.037C342.535 101.026 342.535 101.016 342.54 100.995V100.989Z" fill="url(#paint5_linear_2711_713)"></path><path opacity="0.5" fill-rule="evenodd" clip-rule="evenodd" d="M73 103.991C79.0371 103.991 84 98.8814 84 92.4912C84 86.1011 79.0371 80.9912 73 80.9912C66.9629 80.9912 62 86.1011 62 92.4912C62 98.8814 66.9629 103.991 73 103.991ZM73 104.991C79.6274 104.991 85 99.3948 85 92.4912C85 85.5877 79.6274 79.9912 73 79.9912C66.3726 79.9912 61 85.5877 61 92.4912C61 99.3948 66.3726 104.991 73 104.991Z" fill="#1C59FF"></path><path d="M77.7721 95.5032C77.7615 95.3022 77.7721 95.1066 77.7721 94.9056V94.4032C77.7721 94.4032 77.7403 94.4138 77.735 94.4244C77.3702 94.8104 76.9259 95.0695 76.4447 95.2758C75.6092 95.6301 74.7314 95.8046 73.8324 95.8681C72.8118 95.9421 71.8017 95.8786 70.8023 95.6407C70.1201 95.4767 69.4644 95.2335 68.8827 94.8369C68.7029 94.71 68.5389 94.5672 68.375 94.3979C68.375 94.858 68.375 95.2969 68.375 95.7411C68.375 95.9209 68.4437 96.0849 68.5389 96.2382C68.7134 96.5132 68.9514 96.7142 69.2211 96.8887C70.0513 97.4069 70.9821 97.629 71.9445 97.7506C72.1031 97.7718 72.2724 97.7612 72.4257 97.8141H72.5156C72.5156 97.8141 72.5421 97.8035 72.5579 97.8035C72.5579 97.8035 72.5579 97.8035 72.5632 97.8035H72.6901C72.6901 97.8035 72.7377 97.7982 72.7589 97.8141H72.8699C72.9122 97.7982 72.9598 97.7982 73.0021 97.8141H73.1343C73.1714 97.7982 73.2084 97.7982 73.2454 97.8141H73.3987C73.3987 97.8141 73.4252 97.8035 73.4411 97.8035H73.5627C73.5627 97.8035 73.5627 97.8035 73.568 97.8035H73.5733C73.5733 97.8035 73.5997 97.8035 73.6103 97.8141H73.6526C73.6632 97.7771 73.6949 97.7929 73.716 97.7929C74.4141 97.7454 75.0962 97.629 75.7626 97.4122C76.3019 97.2377 76.8149 97.005 77.2432 96.6296C77.5817 96.3334 77.7879 95.9791 77.7562 95.5085L77.7721 95.5032ZM69.1101 96.0849C68.9831 96.0849 68.888 95.9897 68.8932 95.8628C68.8932 95.7464 68.9937 95.646 69.1153 95.646C69.237 95.646 69.3427 95.7517 69.3374 95.8733C69.3374 95.995 69.237 96.0849 69.1153 96.0849H69.1101ZM70.0778 96.5714C69.9562 96.5714 69.8504 96.4762 69.8451 96.3546C69.8451 96.2382 69.9403 96.1325 70.0566 96.1325C70.1783 96.1272 70.284 96.2224 70.284 96.3493C70.284 96.4709 70.1941 96.5661 70.0725 96.5714H70.0778Z" fill="#1C59FF"></path><path d="M72.8711 97.8085C72.9134 97.7767 72.961 97.7767 73.0033 97.8085H72.8711Z" fill="#1C59FF"></path><path d="M73.1348 97.8087C73.1721 97.7767 73.2094 97.7767 73.2468 97.8087H73.1348Z" fill="#1C59FF"></path><path d="M72.6906 97.7879C72.6906 97.7879 72.7449 97.777 72.7612 97.8096H72.6906C72.6906 97.8096 72.6797 97.7987 72.6851 97.7987C72.6851 97.7987 72.6851 97.7933 72.6906 97.7933V97.7879Z" fill="#1C59FF"></path><path d="M72.5156 97.8089C72.5156 97.7823 72.5423 97.7876 72.5583 97.7929C72.5636 97.7929 72.569 97.7983 72.569 97.8036C72.569 97.8036 72.569 97.8089 72.5636 97.8089H72.521H72.5156Z" fill="#1C59FF"></path><path d="M72.5625 97.809C72.5625 97.809 72.5625 97.7983 72.5625 97.793C72.5785 97.793 72.5945 97.793 72.6052 97.793C72.6105 97.793 72.6159 97.7983 72.6159 97.8036C72.6159 97.8036 72.6159 97.809 72.6105 97.809H72.5678H72.5625Z" fill="#1C59FF"></path><path d="M72.6055 97.8093C72.6055 97.8093 72.6055 97.7984 72.6055 97.793C72.6218 97.793 72.6381 97.793 72.649 97.793C72.6544 97.793 72.6599 97.8038 72.6544 97.8038C72.6544 97.8038 72.6544 97.8093 72.649 97.8093H72.6055Z" fill="#1C59FF"></path><path d="M72.6484 97.8092C72.6484 97.8092 72.6484 97.7984 72.6484 97.7876C72.6647 97.7876 72.6809 97.7876 72.6917 97.7876C72.6917 97.793 72.6917 97.7984 72.6917 97.8092H72.6484Z" fill="#1C59FF"></path><path d="M73.3984 97.8091C73.3984 97.8091 73.4253 97.7876 73.4467 97.7876C73.4521 97.7876 73.4575 97.7983 73.4521 97.7983C73.4521 97.7983 73.4521 97.8037 73.4467 97.8037H73.4038L73.3984 97.8091Z" fill="#1C59FF"></path><path d="M73.4473 97.8094C73.4473 97.8094 73.4473 97.7985 73.4473 97.7876C73.4636 97.7876 73.4799 97.7876 73.4908 97.7876C73.4962 97.7876 73.5017 97.7985 73.4962 97.7985C73.4962 97.7985 73.4962 97.8039 73.4908 97.8039H73.4473V97.8094Z" fill="#1C59FF"></path><path d="M73.4883 97.8094C73.4883 97.8094 73.4883 97.7985 73.4883 97.7876C73.5046 97.7876 73.5209 97.7876 73.5318 97.7876C73.5372 97.7876 73.5427 97.7985 73.5372 97.7985C73.5372 97.7985 73.5372 97.8039 73.5318 97.8039H73.4883V97.8094Z" fill="#1C59FF"></path><path d="M73.5371 97.8093C73.5371 97.8093 73.5371 97.7984 73.5371 97.793C73.5534 97.793 73.5697 97.793 73.5806 97.793C73.5861 97.793 73.5915 97.8038 73.5861 97.8038C73.5861 97.8038 73.5861 97.8093 73.5806 97.8093H73.5371Z" fill="#1C59FF"></path><path d="M73.5781 97.8089C73.5781 97.8089 73.5781 97.7981 73.5781 97.7927C73.5944 97.7927 73.616 97.7818 73.6214 97.8089H73.5781Z" fill="#1C59FF"></path><path d="M73.071 86.4814C74.0704 86.4867 75.054 86.6084 76.0006 86.9468C76.466 87.116 76.9102 87.3276 77.2804 87.666C77.5025 87.8669 77.6823 88.0996 77.7457 88.401C77.825 88.7765 77.6981 89.0991 77.4549 89.3794C77.1482 89.7337 76.7568 89.9611 76.3338 90.1461C75.641 90.4476 74.9166 90.6062 74.1709 90.6855C73.4993 90.7596 72.8277 90.7701 72.1508 90.7067C71.1673 90.6115 70.2101 90.4105 69.3375 89.9135C69.0626 89.7548 68.814 89.5697 68.6236 89.3159C68.2588 88.84 68.2799 88.3059 68.6712 87.8564C69.0203 87.4545 69.4698 87.2112 69.951 87.0208C70.7548 86.6983 71.5903 86.5555 72.4417 86.5026C72.6532 86.492 72.8595 86.4814 73.071 86.4814Z" fill="#1C59FF"></path><path d="M77.7715 92.0762C77.7715 92.0762 77.7609 92.0656 77.7556 92.055C77.7398 92.0656 77.7292 92.0762 77.7186 92.092C77.4965 92.33 77.2321 92.5204 76.9465 92.679C76.0687 93.1655 75.1168 93.3929 74.1279 93.4934C73.1708 93.5939 72.2136 93.5674 71.267 93.3876C70.1988 93.1761 69.1835 92.8482 68.3691 92.0444C68.3691 92.4939 68.3691 92.9276 68.3691 93.3612C68.3691 93.5886 68.4643 93.7842 68.5965 93.9587C68.7975 94.2337 69.0566 94.4294 69.3474 94.5986C70.0666 95.0164 70.8493 95.2226 71.6637 95.3442C72.4675 95.4659 73.2765 95.4764 74.0856 95.3918C74.7784 95.3178 75.4606 95.1803 76.111 94.9212C76.6134 94.7255 77.084 94.4823 77.4489 94.0698C77.634 93.8636 77.7609 93.6309 77.7662 93.3506C77.7715 92.9223 77.7662 92.4939 77.7662 92.0709L77.7715 92.0762ZM69.1042 93.689C68.9826 93.689 68.8821 93.5833 68.8874 93.4617C68.8874 93.34 68.9879 93.2501 69.1095 93.2501C69.2364 93.2501 69.3316 93.3559 69.3316 93.4775C69.3316 93.5939 69.2258 93.689 69.1095 93.689H69.1042ZM70.0719 94.165C69.945 94.165 69.8445 94.0698 69.8445 93.9482C69.8445 93.8265 69.9397 93.7314 70.0614 93.7261C70.183 93.7261 70.2835 93.8213 70.2835 93.9482C70.2835 94.0698 70.1936 94.165 70.0719 94.165Z" fill="#1C59FF"></path><path d="M77.7715 90.839C77.7609 90.4953 77.7715 90.1516 77.7715 89.8131C77.7715 89.7761 77.7873 89.7391 77.7556 89.7021C77.5124 89.9612 77.2321 90.1674 76.9254 90.3366C76.0211 90.8337 75.0322 91.0558 74.0169 91.151C73.1126 91.2356 72.2136 91.2092 71.3199 91.04C70.2306 90.8337 69.1994 90.5059 68.3691 89.6968C68.3691 90.1463 68.3691 90.5852 68.3691 91.0241C68.3691 91.2092 68.4379 91.3784 68.5384 91.5318C68.7076 91.8015 68.9508 92.0024 69.2152 92.1716C69.7123 92.4889 70.257 92.6899 70.8281 92.8327C71.7536 93.0653 72.6949 93.1394 73.6467 93.0812C74.5034 93.0336 75.3389 92.8802 76.1427 92.563C76.5975 92.3832 77.0259 92.1558 77.3749 91.8068C77.6393 91.5371 77.7873 91.2251 77.7768 90.839H77.7715ZM69.1095 91.2832C68.9879 91.2832 68.8927 91.1933 68.8874 91.0717C68.8874 90.9501 68.9826 90.8443 69.1042 90.8443C69.2258 90.8443 69.3316 90.9501 69.3263 91.0717C69.3263 91.188 69.2258 91.2885 69.1042 91.2885L69.1095 91.2832ZM70.0719 91.7644C69.9556 91.7644 69.8551 91.664 69.8498 91.5476C69.8498 91.4313 69.945 91.3255 70.0614 91.3255C70.183 91.3255 70.2835 91.4154 70.2835 91.5371C70.2835 91.664 70.1883 91.7697 70.0666 91.7697L70.0719 91.7644Z" fill="#1C59FF"></path><path opacity="0.5" fill-rule="evenodd" clip-rule="evenodd" d="M92.5 47.9912C98.2593 47.9912 103 43.1069 103 36.9912C103 30.8755 98.2593 25.9912 92.5 25.9912C86.7407 25.9912 82 30.8755 82 36.9912C82 43.1069 86.7407 47.9912 92.5 47.9912ZM92.5 48.9912C98.8513 48.9912 104 43.6186 104 36.9912C104 30.3638 98.8513 24.9912 92.5 24.9912C86.1487 24.9912 81 30.3638 81 36.9912C81 43.6186 86.1487 48.9912 92.5 48.9912Z" fill="#00C274"></path><path d="M98.6175 40.3471C98.5603 40.4694 98.465 40.554 98.365 40.634C97.6932 41.1844 97.0262 41.73 96.3593 42.2851C96.2259 42.3933 96.0877 42.4497 95.921 42.3744C95.759 42.2992 95.7066 42.1581 95.7114 41.984C95.7114 41.6783 95.7114 41.3725 95.7114 41.0668C95.7114 40.9962 95.6923 40.9727 95.6208 40.9727C95.254 40.9727 94.8872 40.9915 94.5251 40.9162C93.6866 40.7422 93.053 40.2859 92.6052 39.5709C91.8477 38.3761 91.0902 37.1814 90.3374 35.9819C90.0183 35.4738 89.5657 35.2245 88.9606 35.2292C88.3365 35.234 87.7124 35.2292 87.0883 35.2292C87.0073 35.2292 86.9883 35.2104 86.9883 35.1305C86.9883 34.7165 86.9883 34.3026 86.9883 33.8839C86.9883 33.804 87.0073 33.7852 87.0883 33.7852C87.7267 33.7852 88.3699 33.7852 89.0083 33.7852C90.104 33.7946 90.952 34.2508 91.538 35.1634C92.3003 36.3535 93.053 37.5436 93.801 38.7383C94.1344 39.2746 94.6013 39.5427 95.2397 39.5239C95.3731 39.5239 95.5065 39.5239 95.6351 39.5239C95.7018 39.5239 95.7161 39.5051 95.7161 39.4439C95.7161 39.1335 95.7161 38.823 95.7161 38.5126C95.7161 38.3432 95.7638 38.2021 95.9257 38.1221C96.0877 38.0469 96.2306 38.1033 96.364 38.2115C97.0596 38.7854 97.7599 39.3593 98.4555 39.9331C98.5317 39.9943 98.5746 40.0695 98.6222 40.1495V40.3283L98.6175 40.3471Z" fill="#00C274"></path><path d="M98.6188 34.6081C98.5664 34.7209 98.4758 34.8056 98.3806 34.8809C97.7184 35.4218 97.0609 35.9675 96.4035 36.5084C96.3368 36.5649 96.2701 36.6213 96.1891 36.6495C95.9413 36.7248 95.7174 36.5602 95.7127 36.292C95.7127 35.9722 95.7127 35.657 95.7127 35.3372C95.7127 35.2572 95.6984 35.229 95.6079 35.2337C95.3792 35.2431 95.1553 35.2196 94.9266 35.2478C94.4549 35.3089 94.0976 35.5488 93.8451 35.944C93.6832 36.198 93.5259 36.4473 93.3592 36.7107C93.2544 36.5461 93.1591 36.3908 93.0591 36.2403C92.9114 36.0098 92.778 35.7699 92.616 35.5488C92.5064 35.403 92.5302 35.2995 92.6208 35.1584C93.1162 34.4152 93.7975 33.9636 94.6884 33.8272C94.8504 33.8037 95.0123 33.799 95.1743 33.799C95.3458 33.799 95.5221 33.799 95.6936 33.7943C95.7174 33.6202 95.6984 33.4462 95.7031 33.2722C95.7031 33.1075 95.7031 32.9429 95.7031 32.7782C95.7031 32.6089 95.7555 32.4772 95.9175 32.4019C96.0795 32.3267 96.2177 32.3784 96.3463 32.4819C97.0466 33.0605 97.7469 33.6344 98.4473 34.2082C98.5235 34.2694 98.5664 34.3446 98.614 34.4246V34.6034L98.6188 34.6081Z" fill="#00C274"></path><path d="M90.7909 38.0654C91.072 38.5123 91.3435 38.9404 91.6198 39.3684C91.6437 39.406 91.6437 39.4296 91.6198 39.4672C91.1291 40.2904 90.4193 40.8031 89.4522 40.9489C89.3093 40.9724 89.1663 40.9771 89.0234 40.9771C88.3803 40.9771 87.7371 40.9771 87.0939 40.9771C87.013 40.9771 86.9844 40.963 86.9844 40.8784C86.9891 40.4644 86.9891 40.0505 86.9844 39.6365C86.9844 39.5519 87.0082 39.5424 87.0844 39.5424C87.718 39.5424 88.3469 39.5424 88.9805 39.5424C89.5665 39.5424 90.0096 39.2978 90.3192 38.8086C90.4717 38.564 90.6242 38.3241 90.7861 38.0654H90.7909Z" fill="#00C274"></path><path opacity="0.5" fill-rule="evenodd" clip-rule="evenodd" d="M81.2837 155.284C85.3064 155.284 88.5674 152.023 88.5674 148C88.5674 143.977 85.3064 140.716 81.2837 140.716C77.261 140.716 74 143.977 74 148C74 152.023 77.261 155.284 81.2837 155.284ZM81.2837 156.284C85.8586 156.284 89.5674 152.575 89.5674 148C89.5674 143.425 85.8586 139.716 81.2837 139.716C76.7087 139.716 73 143.425 73 148C73 152.575 76.7087 156.284 81.2837 156.284Z" fill="#00C274"></path><path d="M82.5309 143.535C82.5309 143.771 82.5309 144.006 82.5345 144.242C82.5345 144.296 82.5128 144.303 82.4657 144.303C82.2556 144.303 82.0491 144.303 81.839 144.303C81.7846 144.303 81.7665 144.314 81.7701 144.372C81.7738 144.459 81.7701 144.546 81.7701 144.633C81.7701 144.676 81.7557 144.691 81.7122 144.684C81.4912 144.651 81.2738 144.655 81.0528 144.684C81.013 144.691 81.0021 144.676 81.0021 144.636C81.0021 144.546 81.0021 144.459 81.0021 144.368C81.0021 144.314 80.984 144.303 80.9369 144.303C80.7268 144.303 80.5203 144.303 80.3102 144.303C80.245 144.303 80.2305 144.285 80.2305 144.223C80.2305 143.995 80.2305 143.763 80.2305 143.535H82.5237H82.5309Z" fill="#00C274"></path><path d="M85.1874 148.451C85.1258 147.835 84.9229 147.27 84.5788 146.752C84.423 146.517 84.2418 146.303 84.0353 146.111C83.9955 146.071 83.9919 146.049 84.0353 146.013C84.1005 145.955 84.1621 145.893 84.2201 145.828C84.2491 145.796 84.2672 145.799 84.2962 145.828C84.3831 145.919 84.4701 146.009 84.5643 146.104C84.7345 145.93 84.9012 145.763 85.0678 145.596C85.0968 145.567 85.0896 145.549 85.0678 145.524C84.7092 145.165 84.3505 144.807 83.9919 144.448C83.9629 144.419 83.9484 144.419 83.923 144.448C83.7709 144.604 83.6151 144.76 83.4593 144.912C83.4195 144.948 83.434 144.966 83.4666 144.995C83.539 145.064 83.6078 145.14 83.6839 145.209C83.7274 145.249 83.7202 145.27 83.6839 145.307C83.6042 145.379 83.5281 145.455 83.4557 145.535C83.405 145.593 83.3651 145.589 83.2999 145.553C82.2747 144.977 81.1987 144.872 80.0901 145.26C78.1991 145.919 77.1992 147.929 77.6738 149.821C77.8549 150.534 78.2063 151.154 78.7533 151.654C79.8039 152.614 81.0284 152.94 82.4087 152.567C83.5173 152.27 84.2998 151.563 84.807 150.545C85.133 149.886 85.2635 149.187 85.1874 148.451ZM84.0607 148.969C84.0426 149.444 83.9122 149.886 83.6549 150.284C83.2709 150.889 82.7311 151.277 82.0356 151.454C80.7567 151.777 79.4199 151.121 78.9164 149.904C78.3911 148.636 78.862 147.176 80.101 146.498C80.485 146.288 80.898 146.187 81.3364 146.176C81.4088 146.176 81.3835 146.22 81.3835 146.252C81.3835 146.672 81.3835 147.096 81.3835 147.516C81.3835 147.937 81.3835 148.353 81.3835 148.77C81.3835 148.842 81.4016 148.857 81.4704 148.857C82.2964 148.857 83.126 148.857 83.952 148.857C84.0643 148.857 84.0607 148.857 84.0571 148.969H84.0607Z" fill="#00C274"></path><path opacity="0.5" fill-rule="evenodd" clip-rule="evenodd" d="M246.701 220C248.082 220 249.201 221.119 249.201 222.5C249.201 223.881 248.082 225 246.701 225C245.32 225 244.201 223.881 244.201 222.5C244.201 221.119 245.32 220 246.701 220ZM246.701 219C248.634 219 250.201 220.567 250.201 222.5C250.201 224.433 248.634 226 246.701 226C244.768 226 243.201 224.433 243.201 222.5C243.201 220.567 244.768 219 246.701 219Z" fill="#00C274"></path><path opacity="0.5" fill-rule="evenodd" clip-rule="evenodd" d="M52 124.5C52.5523 124.5 53 124.948 53 125.5C53 126.052 52.5523 126.5 52 126.5C51.4477 126.5 51 126.052 51 125.5C51 124.948 51.4477 124.5 52 124.5ZM52 123.5C53.1046 123.5 54 124.395 54 125.5C54 126.605 53.1046 127.5 52 127.5C50.8954 127.5 50 126.605 50 125.5C50 124.395 50.8954 123.5 52 123.5Z" fill="#00C274"></path><path opacity="0.5" fill-rule="evenodd" clip-rule="evenodd" d="M294.797 110.222C295.901 110.222 296.797 111.117 296.797 112.222C296.797 113.326 295.901 114.222 294.797 114.222C293.692 114.222 292.797 113.326 292.797 112.222C292.797 111.117 293.692 110.222 294.797 110.222ZM294.797 109.222C296.454 109.222 297.797 110.565 297.797 112.222C297.797 113.879 296.454 115.222 294.797 115.222C293.14 115.222 291.797 113.879 291.797 112.222C291.797 110.565 293.14 109.222 294.797 109.222Z" fill="#00C274"></path><path opacity="0.6" fill-rule="evenodd" clip-rule="evenodd" d="M338.625 215.395C339.453 215.395 340.125 216.067 340.125 216.895C340.125 217.723 339.453 218.395 338.625 218.395C337.797 218.395 337.125 217.723 337.125 216.895C337.125 216.067 337.797 215.395 338.625 215.395ZM338.625 214.395C340.006 214.395 341.125 215.514 341.125 216.895C341.125 218.276 340.006 219.395 338.625 219.395C337.244 219.395 336.125 218.276 336.125 216.895C336.125 215.514 337.244 214.395 338.625 214.395Z" fill="#1C59FF"></path><path opacity="0.5" fill-rule="evenodd" clip-rule="evenodd" d="M212.502 1C214.435 1 216.002 2.567 216.002 4.5C216.002 6.433 214.435 8 212.502 8C210.569 8 209.002 6.433 209.002 4.5C209.002 2.567 210.569 1 212.502 1ZM212.502 0C214.987 0 217.002 2.01472 217.002 4.5C217.002 6.98528 214.987 9 212.502 9C210.017 9 208.002 6.98528 208.002 4.5C208.002 2.01472 210.017 0 212.502 0Z" fill="#00C274"></path><path opacity="0.6" fill-rule="evenodd" clip-rule="evenodd" d="M58.5 20.9912C59.3284 20.9912 60 21.6628 60 22.4912C60 23.3196 59.3284 23.9912 58.5 23.9912C57.6716 23.9912 57 23.3196 57 22.4912C57 21.6628 57.6716 20.9912 58.5 20.9912ZM58.5 19.9912C59.8807 19.9912 61 21.1105 61 22.4912C61 23.8719 59.8807 24.9912 58.5 24.9912C57.1193 24.9912 56 23.8719 56 22.4912C56 21.1105 57.1193 19.9912 58.5 19.9912Z" fill="#1C59FF"></path><defs><filter id="filter0_d_2711_713" x="291.344" y="4.76416" width="83.6504" height="83.6499" filterUnits="userSpaceOnUse" color-interpolation-filters="sRGB"><feGaussianBlur stdDeviation="6"></feGaussianBlur></filter><filter id="filter1_d_2711_713" x="0" y="163.5" width="85" height="84" filterUnits="userSpaceOnUse" color-interpolation-filters="sRGB"><feGaussianBlur stdDeviation="6"></feGaussianBlur></filter><filter id="filter2_d_2711_713" x="134.797" y="68.8945" width="105.205" height="105.205" filterUnits="userSpaceOnUse" color-interpolation-filters="sRGB"><feGaussianBlur stdDeviation="11.5"></feGaussianBlur></filter><linearGradient id="paint0_linear_2711_713" x1="338.3" y1="47" x2="175" y2="47" gradientUnits="userSpaceOnUse"><stop stop-color="#E7EEFF"></stop><stop offset="1" stop-color="#E7EEFF" stop-opacity="0"></stop></linearGradient><linearGradient id="paint1_linear_2711_713" x1="37.4231" y1="206" x2="204" y2="206" gradientUnits="userSpaceOnUse"><stop stop-color="#C9F0DE"></stop><stop offset="1" stop-color="#E9FFF5" stop-opacity="0"></stop></linearGradient><linearGradient id="paint2_linear_2711_713" x1="336.633" y1="106.526" x2="345.369" y2="106.526" gradientUnits="userSpaceOnUse"><stop stop-color="#1C38FF"></stop><stop offset="1" stop-color="#1C59FF"></stop></linearGradient><linearGradient id="paint3_linear_2711_713" x1="337.706" y1="112.206" x2="337.823" y2="112.206" gradientUnits="userSpaceOnUse"><stop stop-color="#1C38FF"></stop><stop offset="1" stop-color="#1C59FF"></stop></linearGradient><linearGradient id="paint4_linear_2711_713" x1="344.18" y1="112.205" x2="344.292" y2="112.205" gradientUnits="userSpaceOnUse"><stop stop-color="#1C38FF"></stop><stop offset="1" stop-color="#1C59FF"></stop></linearGradient><linearGradient id="paint5_linear_2711_713" x1="342.535" y1="102.248" x2="345.174" y2="102.248" gradientUnits="userSpaceOnUse"><stop stop-color="#1C38FF"></stop><stop offset="1" stop-color="#1C59FF"></stop></linearGradient></defs></svg>