<svg xmlns="http://www.w3.org/2000/svg" width="1138" height="502" viewBox="0 0 1138 502" fill="none"><path d="M694 173H974V325H694V173Z" fill="url(#paint0_linear_1201_3533)"></path><path d="M1047 249C1047 290.974 1012.97 325 971 325C929.026 325 895 290.974 895 249C895 207.026 929.026 173 971 173C1012.97 173 1047 207.026 1047 249Z" fill="white"></path><path fill-rule="evenodd" clip-rule="evenodd" d="M971 324C1012.42 324 1046 290.421 1046 249C1046 207.579 1012.42 174 971 174C929.579 174 896 207.579 896 249C896 290.421 929.579 324 971 324ZM971 325C1012.97 325 1047 290.974 1047 249C1047 207.026 1012.97 173 971 173C929.026 173 895 207.026 895 249C895 290.974 929.026 325 971 325Z" fill="#E7E7E7"></path><g filter="url(#filter0_d_1201_3533)"><path d="M1038 249C1038 286.003 1008 316 971 316C933.997 316 904 286.003 904 249C904 211.997 933.997 182 971 182C1008 182 1038 211.997 1038 249Z" fill="#E7EEFF"></path></g><path d="M971.147 291.561C991.279 291.561 1007.6 275.241 1007.6 255.109C1007.6 234.976 991.279 218.656 971.147 218.656C951.015 218.656 934.694 234.976 934.694 255.109C934.694 275.241 951.015 291.561 971.147 291.561Z" fill="#1C59FF"></path><path opacity="0.3" d="M971.147 291.561C991.279 291.561 1007.6 275.241 1007.6 255.109C1007.6 234.976 991.279 218.656 971.147 218.656C951.015 218.656 934.694 234.976 934.694 255.109C934.694 275.241 951.015 291.561 971.147 291.561Z" fill="black"></path><path d="M970.164 289.229C990.296 289.229 1006.62 272.909 1006.62 252.776C1006.62 232.644 990.296 216.324 970.164 216.324C950.032 216.324 933.711 232.644 933.711 252.776C933.711 272.909 950.032 289.229 970.164 289.229Z" fill="#1C59FF"></path><path d="M981.207 278.901C995.632 272.801 1002.38 256.163 996.282 241.738C990.183 227.313 973.544 220.563 959.119 226.663C944.694 232.762 937.945 249.4 944.044 263.826C950.143 278.251 966.782 285 981.207 278.901Z" fill="white"></path><path d="M984.275 266.885C992.068 259.092 992.068 246.458 984.275 238.665C976.482 230.872 963.848 230.872 956.055 238.665C948.262 246.458 948.262 259.092 956.055 266.885C963.848 274.678 976.482 274.678 984.275 266.885Z" fill="#1C59FF"></path><path d="M974.351 262.437C979.685 260.125 982.134 253.926 979.821 248.592C977.509 243.258 971.31 240.809 965.976 243.122C960.643 245.434 958.193 251.633 960.506 256.967C962.819 262.301 969.017 264.75 974.351 262.437Z" fill="white"></path><path d="M998.37 223.252L997.376 215.471L1005.29 207L1005.86 215.393L998.37 223.252Z" fill="#455A64"></path><path d="M1015.36 217.061L1007.33 216.407L999.28 224.152L1007.33 225.014L1015.36 217.061Z" fill="#455A64"></path><path d="M1007.05 213.772C1005.8 215.042 1004.55 216.308 1003.3 217.579C1000.29 220.627 997.282 223.671 994.276 226.719C990.652 230.39 987.033 234.056 983.409 237.727C980.261 240.916 977.119 244.101 973.971 247.291C972.444 248.839 970.844 250.345 969.374 251.945C969.353 251.966 969.332 251.992 969.306 252.013C968.417 252.912 969.803 254.298 970.692 253.399C971.942 252.128 973.197 250.862 974.446 249.592C977.453 246.543 980.46 243.5 983.467 240.451C987.091 236.78 990.709 233.114 994.333 229.444C997.481 226.254 1000.62 223.069 1003.77 219.879C1005.3 218.332 1006.9 216.826 1008.37 215.225C1008.39 215.204 1008.41 215.178 1008.44 215.157C1009.33 214.258 1007.94 212.872 1007.05 213.772Z" fill="#263238"></path><path d="M521 347H241V499H521V347Z" fill="url(#paint1_linear_1201_3533)"></path><path d="M168 423C168 464.974 202.026 499 244 499C285.974 499 320 464.974 320 423C320 381.026 285.974 347 244 347C202.026 347 168 381.026 168 423Z" fill="white"></path><path fill-rule="evenodd" clip-rule="evenodd" d="M244 498C202.579 498 169 464.421 169 423C169 381.579 202.579 348 244 348C285.421 348 319 381.579 319 423C319 464.421 285.421 498 244 498ZM244 499C202.026 499 168 464.974 168 423C168 381.026 202.026 347 244 347C285.974 347 320 381.026 320 423C320 464.974 285.974 499 244 499Z" fill="#E7E7E7"></path><g filter="url(#filter1_d_1201_3533)"><path d="M177 423C177 460.003 206.997 490 244 490C281.003 490 311 460.003 311 423C311 385.997 281.003 356 244 356C206.997 356 177 385.997 177 423Z" fill="#DBF6EA"></path></g><path opacity="0.5" fill-rule="evenodd" clip-rule="evenodd" d="M916.5 69C935.002 69 950 54.0015 950 35.5C950 16.9985 935.002 2 916.5 2C897.998 2 883 16.9985 883 35.5C883 54.0015 897.998 69 916.5 69ZM916.5 71C936.106 71 952 55.1061 952 35.5C952 15.8939 936.106 0 916.5 0C896.894 0 881 15.8939 881 35.5C881 55.1061 896.894 71 916.5 71Z" fill="#1C59FF"></path><path opacity="0.5" fill-rule="evenodd" clip-rule="evenodd" d="M1130 240C1133.31 240 1136 242.686 1136 246C1136 249.314 1133.31 252 1130 252C1126.69 252 1124 249.314 1124 246C1124 242.686 1126.69 240 1130 240ZM1130 238C1134.42 238 1138 241.582 1138 246C1138 250.418 1134.42 254 1130 254C1125.58 254 1122 250.418 1122 246C1122 241.582 1125.58 238 1130 238Z" fill="#00C274"></path><path opacity="0.5" fill-rule="evenodd" clip-rule="evenodd" d="M1113 82C1124.05 82 1133 73.0457 1133 62C1133 50.9543 1124.05 42 1113 42C1101.95 42 1093 50.9543 1093 62C1093 73.0457 1101.95 82 1113 82ZM1113 84C1125.15 84 1135 74.1503 1135 62C1135 49.8497 1125.15 40 1113 40C1100.85 40 1091 49.8497 1091 62C1091 74.1503 1100.85 84 1113 84Z" fill="#1C59FF"></path><path opacity="0.5" fill-rule="evenodd" clip-rule="evenodd" d="M86 408C97.598 408 107 398.598 107 387C107 375.402 97.598 366 86 366C74.402 366 65 375.402 65 387C65 398.598 74.402 408 86 408ZM86 410C98.7025 410 109 399.703 109 387C109 374.297 98.7025 364 86 364C73.2975 364 63 374.297 63 387C63 399.703 73.2975 410 86 410Z" fill="#1C59FF"></path><path opacity="0.5" fill-rule="evenodd" clip-rule="evenodd" d="M808 145C819.046 145 828 136.046 828 125C828 113.954 819.046 105 808 105C796.954 105 788 113.954 788 125C788 136.046 796.954 145 808 145ZM808 147C820.15 147 830 137.15 830 125C830 112.85 820.15 103 808 103C795.85 103 786 112.85 786 125C786 137.15 795.85 147 808 147Z" fill="#00C274"></path><path opacity="0.5" fill-rule="evenodd" clip-rule="evenodd" d="M717 447C719.209 447 721 448.791 721 451C721 453.209 719.209 455 717 455C714.791 455 713 453.209 713 451C713 448.791 714.791 447 717 447ZM717 445C720.314 445 723 447.686 723 451C723 454.314 720.314 457 717 457C713.686 457 711 454.314 711 451C711 447.686 713.686 445 717 445Z" fill="#00C274"></path><path opacity="0.5" fill-rule="evenodd" clip-rule="evenodd" d="M650.5 10C653.538 10 656 12.4624 656 15.5C656 18.5376 653.538 21 650.5 21C647.462 21 645 18.5376 645 15.5C645 12.4624 647.462 10 650.5 10ZM650.5 8C654.642 8 658 11.3579 658 15.5C658 19.6421 654.642 23 650.5 23C646.358 23 643 19.6421 643 15.5C643 11.3579 646.358 8 650.5 8Z" fill="#00C274"></path><path opacity="0.6" fill-rule="evenodd" clip-rule="evenodd" d="M502 32C504.209 32 506 33.7909 506 36C506 38.2091 504.209 40 502 40C499.791 40 498 38.2091 498 36C498 33.7909 499.791 32 502 32ZM502 30C505.314 30 508 32.6863 508 36C508 39.3137 505.314 42 502 42C498.686 42 496 39.3137 496 36C496 32.6863 498.686 30 502 30Z" fill="#1C59FF"></path><path opacity="0.6" fill-rule="evenodd" clip-rule="evenodd" d="M82 79C84.2091 79 86 80.7909 86 83C86 85.2091 84.2091 87 82 87C79.7909 87 78 85.2091 78 83C78 80.7909 79.7909 79 82 79ZM82 77C85.3137 77 88 79.6863 88 83C88 86.3137 85.3137 89 82 89C78.6863 89 76 86.3137 76 83C76 79.6863 78.6863 77 82 77Z" fill="#1C59FF"></path><path opacity="0.5" fill-rule="evenodd" clip-rule="evenodd" d="M54.5 421C57.5376 421 60 423.462 60 426.5C60 429.538 57.5376 432 54.5 432C51.4624 432 49 429.538 49 426.5C49 423.462 51.4624 421 54.5 421ZM54.5 419C58.6421 419 62 422.358 62 426.5C62 430.642 58.6421 434 54.5 434C50.3579 434 47 430.642 47 426.5C47 422.358 50.3579 419 54.5 419Z" fill="#00C274"></path><path d="M765 249C765 353.934 679.934 439 575 439C470.066 439 385 353.934 385 249C385 144.066 470.066 59 575 59C679.934 59 765 144.066 765 249Z" fill="#E6ECFA"></path><path d="M745 249C745 342.888 668.888 419 575 419C481.112 419 405 342.888 405 249C405 155.112 481.112 79 575 79C668.888 79 745 155.112 745 249Z" fill="#1650DC"></path><mask id="mask0_1201_3533" style="mask-type:alpha" maskUnits="userSpaceOnUse" x="405" y="79" width="340" height="340"><path d="M745 249C745 342.888 668.888 419 575 419C481.112 419 405 342.888 405 249C405 155.112 481.112 79 575 79C668.888 79 745 155.112 745 249Z" fill="#1C59FF"></path></mask><g mask="url(#mask0_1201_3533)"><path fill-rule="evenodd" clip-rule="evenodd" d="M498.997 135.168C510.886 111.203 525.625 92.7715 540.73 83.0791L541.27 83.9207C526.375 93.4783 511.739 111.734 499.893 135.613C488.052 159.481 479.021 188.925 475.309 220.808C467.884 284.572 481.738 358.038 536.862 416.156L536.137 416.844C480.762 358.462 466.865 284.677 474.316 220.692C478.041 188.699 487.104 159.144 498.997 135.168Z" fill="#3C74FB"></path><path fill-rule="evenodd" clip-rule="evenodd" d="M470.634 137.074C484.422 115.557 500.92 99.4807 516.776 91.5527L517.224 92.4472C501.58 100.269 485.203 116.192 471.476 137.613C457.753 159.027 446.7 185.902 441.681 215.583C431.644 274.931 445.724 345.508 510.841 406.134L510.159 406.866C444.776 345.992 430.606 275.069 440.695 215.417C445.737 185.598 456.841 158.598 470.634 137.074Z" fill="#3C74FB"></path><path fill-rule="evenodd" clip-rule="evenodd" d="M523.831 136.339C532.473 110.905 543.572 91.0842 555.673 80.6216L556.327 81.3781C544.428 91.6655 533.401 111.282 524.778 136.661C516.161 162.021 509.965 193.072 507.686 226.159C503.128 292.349 514.251 366.588 552.904 419.706L552.096 420.294C513.249 366.911 502.122 292.401 506.689 226.09C508.972 192.927 515.183 161.791 523.831 136.339Z" fill="#3C74FB"></path><path fill-rule="evenodd" clip-rule="evenodd" d="M556.602 101.495C559.573 91.3536 562.921 83.6387 566.615 79.1809L567.385 79.8189C563.828 84.1111 560.526 91.6587 557.562 101.776C554.603 111.877 551.997 124.481 549.803 138.835C545.417 167.542 542.687 203.213 542.075 239.783C541.463 276.354 542.968 313.81 547.049 346.09C551.132 378.392 557.786 405.437 567.427 421.24L566.573 421.76C556.813 405.763 550.142 378.533 546.057 346.216C541.969 313.877 540.462 276.371 541.075 239.767C541.688 203.162 544.42 167.445 548.815 138.684C551.012 124.304 553.626 111.653 556.602 101.495Z" fill="#3C74FB"></path><path fill-rule="evenodd" clip-rule="evenodd" d="M651.002 135.168C639.114 111.203 624.375 92.7715 609.27 83.0791L608.73 83.9207C623.625 93.4783 638.261 111.734 650.106 135.613C661.947 159.481 670.978 188.925 674.691 220.808C682.115 284.572 668.262 358.038 613.137 416.156L613.863 416.844C669.238 358.462 683.134 284.677 675.684 220.692C671.959 188.699 662.896 159.144 651.002 135.168Z" fill="#3C74FB"></path><path fill-rule="evenodd" clip-rule="evenodd" d="M679.366 137.074C665.577 115.557 649.079 99.4807 633.223 91.5527L632.776 92.4472C648.42 100.269 664.797 116.192 678.524 137.613C692.246 159.027 703.299 185.902 708.319 215.583C718.356 274.931 704.276 345.508 639.159 406.134L639.84 406.866C705.223 345.992 719.393 275.069 709.305 215.417C704.262 185.598 693.159 158.598 679.366 137.074Z" fill="#3C74FB"></path><path fill-rule="evenodd" clip-rule="evenodd" d="M626.168 136.339C617.526 110.905 606.428 91.0842 594.326 80.6216L593.672 81.3781C605.571 91.6655 616.598 111.282 625.221 136.661C633.839 162.021 640.035 193.072 642.313 226.159C646.872 292.349 635.749 366.588 597.095 419.706L597.904 420.294C636.75 366.911 647.878 292.401 643.311 226.09C641.027 192.927 634.816 161.791 626.168 136.339Z" fill="#3C74FB"></path><path fill-rule="evenodd" clip-rule="evenodd" d="M593.397 101.495C590.426 91.3536 587.078 83.6387 583.385 79.1809L582.615 79.8189C586.171 84.1111 589.473 91.6587 592.437 101.776C595.397 111.877 598.003 124.481 600.196 138.835C604.582 167.542 607.312 203.213 607.925 239.783C608.537 276.354 607.031 313.81 602.951 346.09C598.867 378.392 592.213 405.437 582.573 421.24L583.427 421.76C593.186 405.763 599.857 378.533 603.943 346.216C608.031 313.877 609.537 276.371 608.925 239.767C608.312 203.162 605.579 167.445 601.185 138.684C598.987 124.304 596.373 111.653 593.397 101.495Z" fill="#3C74FB"></path><path fill-rule="evenodd" clip-rule="evenodd" d="M574.5 423.5V77.5H575.5V423.5H574.5Z" fill="#3C74FB"></path><path fill-rule="evenodd" clip-rule="evenodd" d="M677 108.5H475.5V107.5H677V108.5Z" fill="#3C74FB"></path><path fill-rule="evenodd" clip-rule="evenodd" d="M721 153.5L431 153.5L431 152.5L721 152.5L721 153.5Z" fill="#3C74FB"></path><path fill-rule="evenodd" clip-rule="evenodd" d="M747 201.5L405 201.5L405 200.5L747 200.5L747 201.5Z" fill="#3C74FB"></path><path fill-rule="evenodd" clip-rule="evenodd" d="M754 248.5L398 248.5L398 247.5L754 247.5L754 248.5Z" fill="#3C74FB"></path><path fill-rule="evenodd" clip-rule="evenodd" d="M754 295.5L398 295.5L398 294.5L754 294.5L754 295.5Z" fill="#3C74FB"></path><path fill-rule="evenodd" clip-rule="evenodd" d="M754 342.5L398 342.5L398 341.5L754 341.5L754 342.5Z" fill="#3C74FB"></path><path fill-rule="evenodd" clip-rule="evenodd" d="M754 389.5L398 389.5L398 388.5L754 388.5L754 389.5Z" fill="#3C74FB"></path></g><g filter="url(#filter2_d_1201_3533)"><path d="M641 248.5C641 285.227 611.227 315 574.5 315C537.773 315 508 285.227 508 248.5C508 211.773 537.773 182 574.5 182C611.227 182 641 211.773 641 248.5Z" fill="white"></path></g><path d="M641 248.5C641 285.227 611.227 315 574.5 315C537.773 315 508 285.227 508 248.5C508 211.773 537.773 182 574.5 182C611.227 182 641 211.773 641 248.5Z" fill="white"></path><path d="M1121.52 57.72C1121.52 57.26 1121.52 57.25 1121.05 57.25C1119.52 57.25 1117.98 57.25 1116.45 57.25C1116.15 57.25 1115.88 57.19 1115.63 57.03C1115.18 56.74 1114.97 56.32 1114.97 55.79C1114.97 54.29 1114.97 52.79 1114.97 51.3C1114.96 51.01 1114.94 51 1114.65 51C1112.2 51 1109.75 51 1107.3 51C1107.07 51 1106.84 51.01 1106.62 51.08C1105.65 51.41 1105 52.31 1105 53.36C1105 58.97 1105 64.58 1105 70.18C1105 70.51 1105.05 70.84 1105.19 71.14C1105.55 71.91 1106.1 72.44 1107 72.51C1107.01 72.51 1107.03 72.51 1107.04 72.51C1107.11 72.51 1107.19 72.49 1107.25 72.53H1119.26C1119.33 72.49 1119.4 72.51 1119.47 72.51C1119.48 72.51 1119.5 72.51 1119.51 72.51C1119.8 72.51 1120.06 72.43 1120.31 72.28C1121.1 71.8 1121.51 71.1 1121.51 70.18C1121.51 66.03 1121.51 61.88 1121.51 57.73L1121.52 57.72ZM1111.49 67.41C1111 67.41 1110.51 67.41 1110.02 67.41C1109.53 67.41 1109.07 67.41 1108.59 67.41C1108.16 67.41 1107.88 67.16 1107.87 66.79C1107.87 66.42 1108.15 66.16 1108.57 66.15C1109.54 66.15 1110.51 66.15 1111.49 66.15C1111.89 66.15 1112.18 66.41 1112.19 66.77C1112.19 67.14 1111.9 67.4 1111.48 67.41H1111.49ZM1118.38 63.49C1118.34 63.82 1118.07 64.04 1117.72 64.04C1116.19 64.04 1114.65 64.04 1113.12 64.04C1111.59 64.04 1110.07 64.04 1108.54 64.04C1108.06 64.04 1107.75 63.61 1107.92 63.18C1108.02 62.94 1108.2 62.81 1108.46 62.78C1108.51 62.78 1108.56 62.78 1108.61 62.78C1111.62 62.78 1114.63 62.78 1117.64 62.78C1117.72 62.78 1117.81 62.78 1117.89 62.8C1118.21 62.88 1118.42 63.18 1118.38 63.49ZM1118.34 60.28C1118.24 60.54 1118.01 60.68 1117.69 60.68C1116.16 60.68 1114.64 60.68 1113.11 60.68C1111.58 60.68 1110.07 60.68 1108.55 60.68C1108.06 60.68 1107.74 60.24 1107.93 59.81C1108.04 59.55 1108.26 59.42 1108.54 59.42C1109.39 59.42 1110.23 59.42 1111.08 59.42C1113.28 59.42 1115.49 59.42 1117.69 59.42C1118.19 59.42 1118.5 59.85 1118.33 60.28H1118.34Z" fill="url(#paint2_linear_1201_3533)"></path><path d="M1107.04 72.53C1107.04 72.53 1107.04 72.51 1107.04 72.49C1107.12 72.48 1107.19 72.47 1107.26 72.53H1107.05H1107.04Z" fill="url(#paint3_linear_1201_3533)"></path><path d="M1119.48 72.4999C1119.48 72.4999 1119.48 72.5199 1119.48 72.5399H1119.27C1119.34 72.4899 1119.41 72.4899 1119.49 72.4999H1119.48Z" fill="url(#paint4_linear_1201_3533)"></path><path d="M1116.17 51.3C1116.39 51.41 1116.57 51.55 1116.73 51.71C1118.03 52.94 1119.33 54.17 1120.64 55.41C1120.84 55.6 1121.02 55.8 1121.15 56.04C1121.12 56.1 1121.06 56.07 1121.02 56.07C1119.5 56.07 1117.98 56.07 1116.46 56.07C1116.23 56.07 1116.16 56.01 1116.16 55.8C1116.16 54.33 1116.16 52.86 1116.16 51.39C1116.16 51.37 1116.16 51.35 1116.17 51.31V51.3Z" fill="url(#paint5_linear_1201_3533)"></path><path d="M901.749 45.5748C903.829 43.4785 905.926 41.3985 908.022 39.3023C908.136 39.1885 908.217 39.156 908.347 39.3023C908.526 39.5135 908.721 39.6923 908.932 39.936C909.273 39.5785 909.582 39.221 909.923 38.9123C910.086 38.7498 910.086 38.6523 909.972 38.4735C908.038 35.581 907.372 32.4285 908.022 29.016C909.403 21.671 916.992 17.1535 924.093 19.3798C930.398 21.3623 934.087 27.7648 932.641 34.1998C930.772 42.5685 921.071 46.6311 913.791 42.1135C913.563 41.9673 913.319 41.6748 913.108 41.7073C912.881 41.7398 912.686 42.0485 912.491 42.2598C912.296 42.4548 911.987 42.6335 911.971 42.861C911.954 43.0235 912.279 43.2348 912.474 43.4135C912.637 43.5598 912.621 43.6248 912.474 43.7873C911.613 44.6323 910.752 45.5098 909.891 46.371C908.672 47.5898 907.469 48.8086 906.251 50.0111C905.422 50.8398 904.431 51.1648 903.293 50.9211C902.107 50.6611 901.311 49.9298 900.969 48.7598C900.612 47.5573 900.904 46.4848 901.782 45.5911L901.749 45.5748ZM920.372 40.4885C925.377 40.4885 929.456 36.4098 929.456 31.4048C929.456 26.3835 925.393 22.321 920.372 22.321C915.351 22.321 911.288 26.3835 911.288 31.3885C911.288 36.3935 915.383 40.4723 920.372 40.4723V40.4885Z" fill="#1C59FF"></path><path d="M94.7923 393.06C94.7723 392.68 94.7923 392.31 94.7923 391.93V390.98C94.7923 390.98 94.7323 391 94.7223 391.02C94.0323 391.75 93.1923 392.24 92.2823 392.63C90.7023 393.3 89.0423 393.63 87.3423 393.75C85.4123 393.89 83.5023 393.77 81.6123 393.32C80.3223 393.01 79.0823 392.55 77.9823 391.8C77.6423 391.56 77.3323 391.29 77.0223 390.97C77.0223 391.84 77.0223 392.67 77.0223 393.51C77.0223 393.85 77.1523 394.16 77.3323 394.45C77.6623 394.97 78.1123 395.35 78.6223 395.68C80.1923 396.66 81.9523 397.08 83.7723 397.31C84.0723 397.35 84.3923 397.33 84.6823 397.43H84.8523C84.8523 397.43 84.9023 397.41 84.9323 397.41C84.9323 397.41 84.9323 397.41 84.9423 397.41H85.1823C85.1823 397.41 85.2723 397.4 85.3123 397.43H85.5223C85.6023 397.4 85.6923 397.4 85.7723 397.43H86.0223C86.0923 397.4 86.1623 397.4 86.2323 397.43H86.5223C86.5223 397.43 86.5723 397.41 86.6023 397.41H86.8323C86.8323 397.41 86.8323 397.41 86.8423 397.41H86.8523C86.8523 397.41 86.9023 397.41 86.9223 397.43H87.0023C87.0223 397.36 87.0823 397.39 87.1223 397.39C88.4423 397.3 89.7323 397.08 90.9923 396.67C92.0123 396.34 92.9823 395.9 93.7923 395.19C94.4323 394.63 94.8223 393.96 94.7623 393.07L94.7923 393.06ZM78.4123 394.16C78.1723 394.16 77.9923 393.98 78.0023 393.74C78.0023 393.52 78.1923 393.33 78.4223 393.33C78.6523 393.33 78.8523 393.53 78.8423 393.76C78.8423 393.99 78.6523 394.16 78.4223 394.16H78.4123ZM80.2423 395.08C80.0123 395.08 79.8123 394.9 79.8023 394.67C79.8023 394.45 79.9823 394.25 80.2023 394.25C80.4323 394.24 80.6323 394.42 80.6323 394.66C80.6323 394.89 80.4623 395.07 80.2323 395.08H80.2423Z" fill="#1C59FF"></path><path d="M85.5223 397.42C85.6023 397.36 85.6923 397.36 85.7723 397.42H85.5223Z" fill="#1C59FF"></path><path d="M86.0223 397.42C86.0923 397.36 86.1623 397.36 86.2323 397.42H86.0223Z" fill="#1C59FF"></path><path d="M85.1824 397.38C85.1824 397.38 85.2824 397.36 85.3124 397.42H85.1824C85.1824 397.42 85.1624 397.4 85.1724 397.4C85.1724 397.4 85.1724 397.39 85.1824 397.39V397.38Z" fill="#1C59FF"></path><path d="M84.8524 397.42C84.8524 397.37 84.9024 397.38 84.9324 397.39C84.9424 397.39 84.9524 397.4 84.9524 397.41C84.9524 397.41 84.9524 397.42 84.9424 397.42H84.8624H84.8524Z" fill="#1C59FF"></path><path d="M84.9423 397.42C84.9423 397.42 84.9423 397.4 84.9423 397.39C84.9723 397.39 85.0023 397.39 85.0223 397.39C85.0323 397.39 85.0423 397.4 85.0423 397.41C85.0423 397.41 85.0423 397.42 85.0323 397.42H84.9523H84.9423Z" fill="#1C59FF"></path><path d="M85.0223 397.42C85.0223 397.42 85.0223 397.4 85.0223 397.39C85.0523 397.39 85.0823 397.39 85.1023 397.39C85.1123 397.39 85.1223 397.41 85.1123 397.41C85.1123 397.41 85.1123 397.42 85.1023 397.42H85.0223Z" fill="#1C59FF"></path><path d="M85.1024 397.42C85.1024 397.42 85.1024 397.4 85.1024 397.38C85.1324 397.38 85.1624 397.38 85.1824 397.38C85.1824 397.39 85.1824 397.4 85.1824 397.42H85.1024Z" fill="#1C59FF"></path><path d="M86.5223 397.42C86.5223 397.42 86.5723 397.38 86.6123 397.38C86.6223 397.38 86.6323 397.4 86.6223 397.4C86.6223 397.4 86.6223 397.41 86.6123 397.41H86.5323L86.5223 397.42Z" fill="#1C59FF"></path><path d="M86.6123 397.42C86.6123 397.42 86.6123 397.4 86.6123 397.38C86.6423 397.38 86.6723 397.38 86.6923 397.38C86.7023 397.38 86.7123 397.4 86.7023 397.4C86.7023 397.4 86.7023 397.41 86.6923 397.41H86.6123V397.42Z" fill="#1C59FF"></path><path d="M86.6923 397.42C86.6923 397.42 86.6923 397.4 86.6923 397.38C86.7223 397.38 86.7523 397.38 86.7723 397.38C86.7823 397.38 86.7923 397.4 86.7823 397.4C86.7823 397.4 86.7823 397.41 86.7723 397.41H86.6923V397.42Z" fill="#1C59FF"></path><path d="M86.7823 397.42C86.7823 397.42 86.7823 397.4 86.7823 397.39C86.8123 397.39 86.8423 397.39 86.8623 397.39C86.8723 397.39 86.8823 397.41 86.8723 397.41C86.8723 397.41 86.8723 397.42 86.8623 397.42H86.7823Z" fill="#1C59FF"></path><path d="M86.8623 397.42C86.8623 397.42 86.8623 397.4 86.8623 397.39C86.8923 397.39 86.9323 397.37 86.9423 397.42H86.8623Z" fill="#1C59FF"></path><path d="M85.9024 376C87.7924 376.01 89.6524 376.24 91.4424 376.88C92.3224 377.2 93.1624 377.6 93.8624 378.24C94.2824 378.62 94.6224 379.06 94.7424 379.63C94.8924 380.34 94.6524 380.95 94.1924 381.48C93.6124 382.15 92.8724 382.58 92.0724 382.93C90.7624 383.5 89.3924 383.8 87.9824 383.95C86.7124 384.09 85.4424 384.11 84.1624 383.99C82.3024 383.81 80.4924 383.43 78.8424 382.49C78.3224 382.19 77.8524 381.84 77.4924 381.36C76.8024 380.46 76.8424 379.45 77.5824 378.6C78.2424 377.84 79.0924 377.38 80.0024 377.02C81.5224 376.41 83.1024 376.14 84.7124 376.04C85.1124 376.02 85.5024 376 85.9024 376Z" fill="#1C59FF"></path><path d="M94.7923 386.58C94.7923 386.58 94.7723 386.56 94.7623 386.54C94.7323 386.56 94.7123 386.58 94.6923 386.61C94.2723 387.06 93.7723 387.42 93.2323 387.72C91.5723 388.64 89.7723 389.07 87.9023 389.26C86.0923 389.45 84.2823 389.4 82.4923 389.06C80.4723 388.66 78.5523 388.04 77.0123 386.52C77.0123 387.37 77.0123 388.19 77.0123 389.01C77.0123 389.44 77.1923 389.81 77.4423 390.14C77.8223 390.66 78.3123 391.03 78.8623 391.35C80.2223 392.14 81.7023 392.53 83.2423 392.76C84.7623 392.99 86.2923 393.01 87.8223 392.85C89.1323 392.71 90.4223 392.45 91.6523 391.96C92.6023 391.59 93.4923 391.13 94.1823 390.35C94.5323 389.96 94.7723 389.52 94.7823 388.99C94.7923 388.18 94.7823 387.37 94.7823 386.57L94.7923 386.58ZM78.4023 389.63C78.1723 389.63 77.9823 389.43 77.9923 389.2C77.9923 388.97 78.1823 388.8 78.4123 388.8C78.6523 388.8 78.8323 389 78.8323 389.23C78.8323 389.45 78.6323 389.63 78.4123 389.63H78.4023ZM80.2323 390.53C79.9923 390.53 79.8023 390.35 79.8023 390.12C79.8023 389.89 79.9823 389.71 80.2123 389.7C80.4423 389.7 80.6323 389.88 80.6323 390.12C80.6323 390.35 80.4623 390.53 80.2323 390.53Z" fill="#1C59FF"></path><path d="M94.7923 384.24C94.7723 383.59 94.7923 382.94 94.7923 382.3C94.7923 382.23 94.8223 382.16 94.7623 382.09C94.3023 382.58 93.7723 382.97 93.1923 383.29C91.4823 384.23 89.6123 384.65 87.6923 384.83C85.9823 384.99 84.2823 384.94 82.5923 384.62C80.5323 384.23 78.5823 383.61 77.0123 382.08C77.0123 382.93 77.0123 383.76 77.0123 384.59C77.0123 384.94 77.1423 385.26 77.3323 385.55C77.6523 386.06 78.1123 386.44 78.6123 386.76C79.5523 387.36 80.5823 387.74 81.6623 388.01C83.4123 388.45 85.1923 388.59 86.9923 388.48C88.6123 388.39 90.1923 388.1 91.7123 387.5C92.5723 387.16 93.3823 386.73 94.0423 386.07C94.5423 385.56 94.8223 384.97 94.8023 384.24H94.7923ZM78.4123 385.08C78.1823 385.08 78.0023 384.91 77.9923 384.68C77.9923 384.45 78.1723 384.25 78.4023 384.25C78.6323 384.25 78.8323 384.45 78.8223 384.68C78.8223 384.9 78.6323 385.09 78.4023 385.09L78.4123 385.08ZM80.2323 385.99C80.0123 385.99 79.8223 385.8 79.8123 385.58C79.8123 385.36 79.9923 385.16 80.2123 385.16C80.4423 385.16 80.6323 385.33 80.6323 385.56C80.6323 385.8 80.4523 386 80.2223 386L80.2323 385.99Z" fill="#1C59FF"></path><path opacity="0.5" fill-rule="evenodd" clip-rule="evenodd" d="M27 81C40.8071 81 52 69.8071 52 56C52 42.1929 40.8071 31 27 31C13.1929 31 2 42.1929 2 56C2 69.8071 13.1929 81 27 81ZM27 83C41.9117 83 54 70.9117 54 56C54 41.0883 41.9117 29 27 29C12.0883 29 0 41.0883 0 56C0 70.9117 12.0883 83 27 83Z" fill="#00C274"></path><path d="M30.9007 41C30.9007 41.7526 30.9007 42.5052 30.9122 43.2577C30.9122 43.4314 30.8428 43.4546 30.6923 43.4546C30.0207 43.4546 29.3608 43.4546 28.6892 43.4546C28.5156 43.4546 28.4577 43.4893 28.4692 43.6746C28.4808 43.9524 28.4692 44.2303 28.4692 44.5082C28.4692 44.6471 28.4229 44.6934 28.284 44.6703C27.5777 44.5661 26.883 44.5777 26.1768 44.6703C26.0494 44.6934 26.0147 44.6471 26.0147 44.5198C26.0147 44.2303 26.0147 43.9524 26.0147 43.663C26.0147 43.4893 25.9568 43.4546 25.8063 43.4546C25.1347 43.4546 24.4748 43.4546 23.8032 43.4546C23.5948 43.4546 23.5485 43.3967 23.5485 43.1999C23.5485 42.4704 23.5485 41.7294 23.5485 41H30.8775H30.9007Z" fill="#00C274"></path><path d="M39.3874 56.7115C39.1906 54.7432 38.5422 52.937 37.4423 51.2813C36.9445 50.5288 36.3655 49.8456 35.7056 49.232C35.5782 49.1046 35.5666 49.0352 35.7056 48.9194C35.914 48.7341 36.1108 48.5373 36.2961 48.3289C36.3887 48.2247 36.4466 48.2363 36.5392 48.3289C36.8171 48.6184 37.095 48.9078 37.396 49.2088C37.9402 48.6531 38.4728 48.1205 39.0054 47.5879C39.098 47.4953 39.0748 47.4374 39.0054 47.3563C37.8591 46.2101 36.7129 45.0639 35.5666 43.9176C35.474 43.825 35.4277 43.825 35.3467 43.9176C34.8604 44.4155 34.3625 44.9133 33.8647 45.3996C33.7373 45.5154 33.7836 45.5733 33.8878 45.6659C34.1194 45.8859 34.3394 46.129 34.5825 46.349C34.7214 46.4764 34.6983 46.5459 34.5825 46.6616C34.3278 46.8932 34.0846 47.1363 33.8531 47.3911C33.691 47.5763 33.5636 47.5647 33.3552 47.449C30.0786 45.608 26.6399 45.2723 23.097 46.5111C17.0531 48.6184 13.8576 55.0442 15.3743 61.088C15.9532 63.3689 17.0763 65.3488 18.8246 66.9466C22.1823 70.0148 26.0957 71.0569 30.507 69.8643C34.0499 68.9149 36.5508 66.6572 38.1717 63.4037C39.2138 61.2965 39.6306 59.0619 39.3874 56.7115ZM35.7866 58.3672C35.7287 59.8839 35.3119 61.2965 34.4899 62.5701C33.2626 64.5036 31.5374 65.7425 29.3144 66.3098C25.2273 67.3403 20.955 65.2446 19.3456 61.3543C17.6668 57.302 19.1719 52.636 23.1317 50.4709C24.359 49.7993 25.6789 49.4751 27.0798 49.4404C27.3114 49.4404 27.2304 49.5793 27.2304 49.6835C27.2304 51.0266 27.2304 52.3813 27.2304 53.7243C27.2304 55.0674 27.2304 56.3989 27.2304 57.7304C27.2304 57.9619 27.2883 58.0083 27.5082 58.0083C30.1481 58.0083 32.7995 58.0083 35.4393 58.0083C35.7982 58.0083 35.7866 58.0083 35.7751 58.3672H35.7866Z" fill="#00C274"></path><path d="M819 131.095C818.892 131.326 818.711 131.486 818.522 131.638C817.252 132.678 815.991 133.71 814.73 134.76C814.477 134.964 814.216 135.071 813.901 134.929C813.594 134.786 813.495 134.52 813.504 134.19C813.504 133.612 813.504 133.034 813.504 132.456C813.504 132.323 813.468 132.278 813.333 132.278C812.639 132.278 811.946 132.314 811.261 132.171C809.675 131.842 808.477 130.979 807.63 129.627C806.198 127.368 804.766 125.109 803.342 122.84C802.739 121.88 801.883 121.408 800.739 121.417C799.558 121.426 798.378 121.417 797.198 121.417C797.045 121.417 797.009 121.382 797.009 121.23C797.009 120.448 797.009 119.665 797.009 118.873C797.009 118.722 797.045 118.686 797.198 118.686C798.405 118.686 799.621 118.686 800.829 118.686C802.901 118.704 804.504 119.567 805.612 121.293C807.054 123.543 808.477 125.793 809.892 128.053C810.522 129.067 811.405 129.574 812.612 129.538C812.865 129.538 813.117 129.538 813.36 129.538C813.486 129.538 813.513 129.503 813.513 129.387C813.513 128.8 813.513 128.213 813.513 127.626C813.513 127.306 813.603 127.039 813.91 126.888C814.216 126.745 814.486 126.852 814.739 127.057C816.054 128.142 817.378 129.227 818.693 130.312C818.838 130.428 818.919 130.57 819.009 130.721V131.059L819 131.095Z" fill="#00C274"></path><path d="M819 120.243C818.901 120.457 818.73 120.617 818.55 120.759C817.297 121.782 816.054 122.814 814.811 123.837C814.685 123.943 814.559 124.05 814.405 124.104C813.937 124.246 813.513 123.935 813.504 123.427C813.504 122.823 813.504 122.227 813.504 121.622C813.504 121.471 813.477 121.417 813.306 121.426C812.874 121.444 812.45 121.399 812.018 121.453C811.126 121.568 810.45 122.022 809.973 122.769C809.667 123.25 809.369 123.721 809.054 124.219C808.856 123.908 808.676 123.614 808.486 123.33C808.207 122.894 807.955 122.44 807.649 122.022C807.441 121.746 807.486 121.551 807.658 121.284C808.595 119.878 809.883 119.024 811.568 118.766C811.874 118.722 812.18 118.713 812.486 118.713C812.811 118.713 813.144 118.713 813.468 118.704C813.513 118.375 813.477 118.046 813.486 117.717C813.486 117.405 813.486 117.094 813.486 116.783C813.486 116.463 813.586 116.214 813.892 116.071C814.198 115.929 814.459 116.027 814.703 116.222C816.027 117.317 817.351 118.402 818.676 119.487C818.82 119.603 818.901 119.745 818.991 119.896V120.234L819 120.243Z" fill="#00C274"></path><path d="M804.198 126.781C804.73 127.626 805.243 128.435 805.766 129.245C805.811 129.316 805.811 129.36 805.766 129.432C804.838 130.988 803.495 131.958 801.667 132.233C801.396 132.278 801.126 132.287 800.856 132.287C799.64 132.287 798.423 132.287 797.207 132.287C797.054 132.287 797 132.26 797 132.1C797.009 131.317 797.009 130.535 797 129.752C797 129.592 797.045 129.574 797.189 129.574C798.387 129.574 799.577 129.574 800.775 129.574C801.883 129.574 802.721 129.111 803.306 128.186C803.595 127.724 803.883 127.27 804.189 126.781H804.198Z" fill="#00C274"></path><path opacity="0.5" fill-rule="evenodd" clip-rule="evenodd" d="M297.5 120C317.658 120 334 103.658 334 83.5C334 63.3416 317.658 47 297.5 47C277.342 47 261 63.3416 261 83.5C261 103.658 277.342 120 297.5 120ZM297.5 122C318.763 122 336 104.763 336 83.5C336 62.237 318.763 45 297.5 45C276.237 45 259 62.237 259 83.5C259 104.763 276.237 122 297.5 122Z" fill="#00C274"></path><path d="M305.728 95V71.2H308.822V95H305.728Z" fill="#00C274"></path><path d="M299.768 95L297.422 88.948H286.848L284.502 95H281.306L290.724 71.2H293.546L302.998 95H299.768ZM287.902 86.194H296.368L292.152 75.28L287.902 86.194Z" fill="#00C274"></path><g clip-path="url(#clip0_1201_3533)"><path d="M272 412.095C271.639 396.778 259.047 384.649 243.861 385C228.676 385.365 216.652 398.079 217 413.396C217.258 424.484 223.941 433.893 233.359 438.109C233.437 441.401 233.527 445.11 233.527 445.11L257.627 444.538C257.627 444.538 257.679 440.608 257.653 437.107C266.401 432.292 272.245 422.844 271.987 412.095H272Z" fill="#00C274"></path><path d="M243.345 445.748C243.074 436.248 243.423 426.735 242.971 417.235C242.881 415.348 242.765 413.461 242.507 411.587C242.158 408.945 241.41 406.108 238.855 404.807C236.378 403.545 233.979 405.002 232.908 407.358C231.889 409.596 231.734 412.303 232.172 414.71C233.076 419.577 236.456 423.794 241.204 425.238C245.926 426.683 251.254 425.59 254.763 421.998C258.131 418.562 259.782 412.927 258.105 408.282C257.408 406.369 255.912 404.364 253.796 404.039C251.073 403.61 249.37 406.004 248.712 408.347C248.029 410.793 247.964 413.461 247.822 415.986C247.654 418.758 247.577 421.53 247.525 424.301C247.409 429.975 247.435 435.649 247.332 441.323C247.306 442.625 247.267 443.913 247.229 445.214C247.19 446.243 248.777 446.477 248.816 445.436C249.164 435.493 248.816 425.538 249.448 415.608C249.59 413.357 249.628 410.962 250.261 408.789C250.583 407.67 251.125 406.343 252.26 405.835C253.138 405.432 254.079 405.653 254.815 406.238C256.453 407.501 257.034 409.713 257.137 411.704C257.253 413.956 256.686 416.246 255.615 418.211C253.434 422.258 249.099 424.575 244.571 424.262C240.042 423.95 236.159 421.178 234.456 416.91C233.63 414.84 233.346 412.576 233.695 410.377C234.03 408.308 235.295 405.08 237.939 406.186C240.3 407.162 240.7 410.077 240.971 412.316C241.178 414.021 241.281 415.738 241.371 417.443C241.784 426.071 241.565 434.725 241.694 443.366C241.707 444.225 241.72 445.097 241.745 445.956C241.771 446.997 243.371 446.802 243.332 445.761L243.345 445.748Z" fill="white"></path><path d="M240.584 459.048C240.584 459.048 241.591 459.673 242.197 460.414C242.507 460.805 242.997 461.013 243.487 461L248.338 460.883C248.88 460.87 249.383 460.583 249.68 460.128C250.028 459.581 250.648 458.944 251.306 458.788L240.584 459.048Z" fill="#455A64"></path><path d="M234.998 445.553C234.998 445.657 236.314 453.27 236.804 456.172C237.011 457.369 237.772 458.41 238.881 458.892C239.281 459.061 239.746 459.178 240.275 459.165C242.352 459.113 250.88 458.905 250.88 458.905C250.88 458.905 253.654 458.84 254.221 456.602C254.828 454.246 255.86 445.045 255.86 445.045L234.998 445.553Z" fill="#263238"></path><path d="M254.879 455.56L236.404 456.081C236.12 456.081 235.875 455.859 235.862 455.56V455.508C235.862 455.222 236.082 454.974 236.365 454.961L254.841 454.441C255.125 454.441 255.37 454.662 255.383 454.961V455.014C255.383 455.313 255.163 455.547 254.879 455.56Z" fill="#E0E0E0"></path><path d="M254.879 455.56C254.879 455.56 255.047 455.573 255.228 455.378C255.318 455.287 255.383 455.118 255.357 454.922C255.357 454.74 255.202 454.519 254.957 454.48C253.95 454.48 252.467 454.558 250.635 454.61C246.971 454.714 241.926 454.87 236.365 455.04C236.224 455.04 236.082 455.118 236.004 455.248C235.966 455.313 235.94 455.378 235.94 455.456C235.94 455.534 235.94 455.612 235.966 455.677C236.004 455.82 236.12 455.925 236.262 455.964C236.391 455.99 236.585 455.964 236.74 455.964C237.423 455.951 238.081 455.925 238.739 455.912C240.055 455.872 241.32 455.846 242.532 455.807C244.945 455.742 247.113 455.69 248.945 455.651C250.764 455.612 252.235 455.586 253.267 455.56C253.77 455.56 254.157 455.56 254.441 455.547C254.57 455.547 254.673 455.547 254.75 455.547C254.673 455.547 254.57 455.547 254.441 455.56C254.157 455.56 253.77 455.586 253.267 455.612C252.235 455.651 250.764 455.703 248.945 455.768C247.113 455.82 244.945 455.899 242.532 455.964C241.32 456.003 240.055 456.042 238.739 456.081C238.081 456.094 237.411 456.12 236.74 456.133H236.482C236.404 456.133 236.301 456.146 236.198 456.133C236.004 456.081 235.836 455.925 235.772 455.729C235.733 455.625 235.733 455.534 235.746 455.443C235.746 455.339 235.785 455.235 235.836 455.157C235.94 454.988 236.133 454.87 236.34 454.857C241.913 454.714 246.945 454.584 250.609 454.48C252.441 454.441 253.912 454.389 254.944 454.402C255.215 454.467 255.37 454.714 255.383 454.909C255.408 455.118 255.331 455.287 255.228 455.391C255.021 455.586 254.841 455.534 254.854 455.547L254.879 455.56Z" fill="#263238"></path><path d="M235.926 452.558L255.181 452.019C255.464 452.011 255.716 452.238 255.724 452.537L255.725 452.589C255.733 452.876 255.508 453.129 255.211 453.138L235.957 453.677C235.673 453.685 235.421 453.457 235.413 453.158L235.412 453.106C235.403 452.807 235.629 452.566 235.926 452.558Z" fill="#E0E0E0"></path><path d="M255.215 453.14C255.215 453.14 255.383 453.153 255.576 452.957C255.666 452.853 255.718 452.684 255.692 452.489C255.666 452.294 255.499 452.086 255.241 452.073C254.17 452.112 252.635 452.164 250.751 452.229C246.945 452.346 241.707 452.502 235.927 452.671C235.772 452.671 235.63 452.762 235.553 452.892C235.514 452.957 235.501 453.036 235.501 453.114C235.501 453.205 235.501 453.27 235.54 453.348C235.591 453.491 235.733 453.595 235.875 453.608C236.017 453.608 236.224 453.608 236.391 453.608C237.101 453.595 237.785 453.569 238.468 453.556C239.836 453.517 241.152 453.491 242.403 453.452C244.906 453.387 247.164 453.335 249.074 453.283C250.957 453.244 252.493 453.205 253.563 453.192C254.08 453.192 254.492 453.179 254.789 453.179C254.918 453.179 255.021 453.179 255.112 453.179C255.189 453.179 255.215 453.179 255.215 453.179C255.215 453.179 255.176 453.179 255.112 453.179C255.034 453.179 254.931 453.179 254.789 453.192C254.492 453.192 254.092 453.218 253.563 453.244C252.493 453.283 250.957 453.335 249.074 453.4C247.177 453.465 244.919 453.53 242.403 453.608C241.152 453.647 239.836 453.686 238.468 453.725C237.785 453.751 237.088 453.764 236.391 453.79C236.211 453.79 236.056 453.816 235.849 453.79C235.643 453.764 235.462 453.621 235.372 453.413C235.333 453.322 235.32 453.205 235.32 453.114C235.32 453.01 235.346 452.905 235.398 452.814C235.501 452.632 235.707 452.502 235.914 452.502C241.694 452.346 246.932 452.216 250.738 452.112C252.635 452.073 254.17 452.034 255.241 452.021C255.525 452.047 255.718 452.294 255.744 452.502C255.77 452.71 255.705 452.905 255.602 453.01C255.383 453.218 255.202 453.166 255.215 453.179V453.14Z" fill="#263238"></path><path d="M235.615 450.16L255.372 449.607C255.656 449.599 255.908 449.826 255.916 450.125L255.917 450.177C255.925 450.476 255.7 450.717 255.403 450.725L235.645 451.279C235.362 451.287 235.11 451.059 235.102 450.76L235.1 450.695C235.092 450.409 235.318 450.155 235.614 450.147L235.615 450.16Z" fill="#E0E0E0"></path><path d="M255.408 450.732C255.408 450.732 255.589 450.745 255.783 450.537C255.873 450.433 255.924 450.251 255.886 450.056C255.86 449.86 255.666 449.652 255.408 449.652C254.312 449.691 252.738 449.743 250.815 449.808C246.919 449.925 241.565 450.082 235.643 450.264C235.488 450.264 235.346 450.355 235.269 450.498C235.23 450.563 235.217 450.641 235.217 450.719C235.217 450.81 235.217 450.875 235.256 450.954C235.32 451.097 235.462 451.188 235.617 451.201C235.785 451.201 235.978 451.201 236.146 451.201C236.869 451.175 237.578 451.162 238.275 451.149C239.668 451.11 241.023 451.071 242.3 451.045C244.868 450.98 247.177 450.927 249.125 450.875C251.061 450.836 252.622 450.797 253.731 450.771C254.26 450.771 254.686 450.758 254.983 450.758C255.112 450.758 255.228 450.758 255.305 450.758C255.228 450.758 255.112 450.758 254.983 450.771C254.686 450.771 254.26 450.797 253.731 450.823C252.635 450.862 251.061 450.914 249.138 450.98C247.19 451.045 244.881 451.11 242.313 451.188C241.023 451.227 239.681 451.266 238.288 451.305C237.591 451.331 236.882 451.344 236.159 451.37C235.978 451.37 235.811 451.383 235.604 451.37C235.398 451.357 235.191 451.214 235.101 451.019C235.05 450.927 235.037 450.797 235.037 450.706C235.037 450.602 235.062 450.485 235.114 450.394C235.217 450.199 235.424 450.069 235.643 450.069C241.565 449.912 246.919 449.769 250.815 449.665C252.751 449.626 254.325 449.587 255.421 449.561C255.718 449.561 255.924 449.808 255.95 450.03C255.989 450.238 255.924 450.446 255.821 450.55C255.602 450.771 255.408 450.719 255.421 450.719L255.408 450.732Z" fill="#263238"></path><path d="M235.148 447.766L255.706 447.19C255.99 447.182 256.241 447.41 256.249 447.709L256.251 447.761C256.259 448.06 256.033 448.301 255.737 448.309L235.179 448.885C234.896 448.893 234.644 448.665 234.636 448.366L234.634 448.314C234.626 448.015 234.852 447.774 235.148 447.766Z" fill="#E0E0E0"></path><path d="M255.744 448.312C255.744 448.312 255.924 448.338 256.118 448.103C256.208 447.986 256.26 447.804 256.208 447.596C256.157 447.401 255.95 447.192 255.666 447.231C254.531 447.27 252.905 447.323 250.893 447.388C246.855 447.505 241.294 447.674 235.153 447.856C234.998 447.856 234.843 447.96 234.766 448.103C234.701 448.246 234.714 448.442 234.779 448.572C234.856 448.715 235.011 448.793 235.179 448.793C235.372 448.793 235.553 448.793 235.746 448.78C236.494 448.754 237.23 448.741 237.952 448.715C239.397 448.676 240.804 448.637 242.133 448.598C244.79 448.533 247.19 448.468 249.216 448.416C251.228 448.377 252.854 448.338 253.989 448.312C254.544 448.312 254.983 448.299 255.292 448.299C255.434 448.299 255.55 448.299 255.628 448.299C255.537 448.299 255.434 448.299 255.292 448.312C254.983 448.312 254.544 448.338 253.989 448.364C252.854 448.403 251.228 448.455 249.216 448.52C247.203 448.585 244.803 448.65 242.133 448.741C240.804 448.78 239.397 448.819 237.952 448.858C237.23 448.884 236.494 448.897 235.746 448.923C235.566 448.923 235.372 448.923 235.179 448.936C234.959 448.936 234.74 448.819 234.624 448.624C234.572 448.533 234.533 448.416 234.546 448.312C234.546 448.207 234.546 448.09 234.611 447.986C234.701 447.778 234.92 447.635 235.153 447.635C241.294 447.479 246.855 447.323 250.893 447.218C252.905 447.179 254.531 447.14 255.666 447.114C255.976 447.088 256.208 447.323 256.26 447.544C256.312 447.765 256.26 447.973 256.144 448.09C256.041 448.207 255.924 448.246 255.847 448.273C255.77 448.286 255.731 448.273 255.731 448.273L255.744 448.312Z" fill="#263238"></path><path d="M232.172 439.02C232.172 439.215 232.727 443.887 233.011 446.282C233.114 447.167 233.617 447.947 234.366 448.403L235.462 449.08L255.963 448.572L257.008 447.843C257.744 447.336 258.208 446.516 258.26 445.618L258.698 438.343L232.172 438.994V439.02Z" fill="#00C274"></path><g opacity="0.3"><path d="M237.088 456.016C239.075 456.419 241.049 456.406 243.216 456.341C244.971 456.289 246.687 456.302 248.583 456.211C249.977 456.146 251.254 456.042 252.647 455.95C253.344 455.898 254.118 455.703 254.247 455.56L237.088 456.016Z" fill="black"></path></g><g opacity="0.3"><path d="M236.301 453.621C238.443 454.024 240.559 454.011 242.907 453.933C244.79 453.881 246.648 453.881 248.7 453.79C250.196 453.725 251.577 453.621 253.073 453.517C253.834 453.465 254.66 453.27 254.802 453.126L236.314 453.608L236.301 453.621Z" fill="black"></path></g><g opacity="0.3"><path d="M236.236 451.226C238.378 451.63 240.494 451.617 242.842 451.539C244.726 451.487 246.584 451.487 248.622 451.396C250.119 451.331 251.499 451.226 252.996 451.122C253.757 451.07 254.583 450.875 254.725 450.732L236.236 451.213V451.226Z" fill="black"></path></g><g opacity="0.3"><path d="M236.185 448.845C238.327 449.249 240.442 449.236 242.791 449.157C244.674 449.105 246.532 449.105 248.571 449.014C250.067 448.949 251.448 448.845 252.944 448.741C253.705 448.689 254.531 448.494 254.673 448.351L236.185 448.832V448.845Z" fill="black"></path></g><g opacity="0.3"><path d="M232.172 439.02C232.172 439.215 232.727 443.887 233.011 446.282C233.114 447.167 233.617 447.947 234.366 448.403L235.462 449.08L255.963 448.572L257.008 447.843C257.744 447.336 258.208 446.516 258.26 445.618L258.698 438.343L232.172 438.994V439.02Z" fill="black"></path></g><path d="M257.782 446.659C257.782 446.659 252.299 446.88 245.539 447.049C238.765 447.218 233.282 447.309 233.282 447.257C233.282 447.205 238.765 447.036 245.526 446.867C252.286 446.698 257.782 446.607 257.782 446.659Z" fill="#263238"></path><path d="M258.556 438.239C258.556 438.239 252.609 438.512 245.255 438.721C237.901 438.929 231.94 439.059 231.94 438.994C231.94 438.942 237.888 438.721 245.242 438.512C252.583 438.304 258.544 438.174 258.556 438.239Z" fill="#263238"></path></g><path opacity="0.5" fill-rule="evenodd" clip-rule="evenodd" d="M174 28C175.657 28 177 29.3431 177 31C177 32.6569 175.657 34 174 34C172.343 34 171 32.6569 171 31C171 29.3431 172.343 28 174 28ZM174 26C176.761 26 179 28.2386 179 31C179 33.7614 176.761 36 174 36C171.239 36 169 33.7614 169 31C169 28.2386 171.239 26 174 26Z" fill="#00C274"></path><path fill-rule="evenodd" clip-rule="evenodd" d="M552.644 247.854L564.655 272.098C564.736 272.258 564.816 272.419 564.896 272.58V272.6C566.664 275.914 570.159 278.184 574.176 278.184C578.575 278.184 582.331 275.472 583.898 271.656L601.894 235.461C600.167 238.916 596.612 241.286 592.494 241.286C589.984 241.286 587.694 240.402 585.886 238.936L579.037 234.156L571.525 248.417C569.757 251.751 566.262 254.021 562.225 254.021C555.476 254.021 552.805 248.176 552.825 248.176C552.825 248.176 552.745 248.055 552.644 247.854Z" fill="#0E1B3D"></path><path fill-rule="evenodd" clip-rule="evenodd" d="M592.495 220.297C598.3 220.297 603 224.997 603 230.801C603 236.606 598.3 241.306 592.495 241.306C589.984 241.306 587.694 240.423 585.887 238.956L579.037 234.176C580.484 231.444 581.769 228.652 583.175 225.961C584.923 222.606 588.438 220.297 592.495 220.297Z" fill="#00C274"></path><path fill-rule="evenodd" clip-rule="evenodd" d="M579.037 234.176L561.844 222.185C560.137 221 558.068 220.297 555.838 220.297C550.054 220.297 545.354 224.997 545.354 230.801C545.354 232.89 545.956 234.819 547.001 236.466C546.699 236.004 552.745 248.236 552.825 248.216C552.825 248.216 555.477 254.061 562.226 254.061C566.263 254.061 569.758 251.791 571.525 248.457L579.037 234.196V234.176Z" fill="#1C59FF"></path><defs><filter id="filter0_d_1201_3533" x="892" y="170" width="158" height="158" filterUnits="userSpaceOnUse" color-interpolation-filters="sRGB"><feGaussianBlur stdDeviation="6"></feGaussianBlur></filter><filter id="filter1_d_1201_3533" x="165" y="344" width="158" height="158" filterUnits="userSpaceOnUse" color-interpolation-filters="sRGB"><feGaussianBlur stdDeviation="6"></feGaussianBlur></filter><filter id="filter2_d_1201_3533" x="485" y="159" width="179" height="179" filterUnits="userSpaceOnUse" color-interpolation-filters="sRGB"><feGaussianBlur stdDeviation="11.5"></feGaussianBlur></filter><linearGradient id="paint0_linear_1201_3533" x1="978" y1="249" x2="694" y2="249" gradientUnits="userSpaceOnUse"><stop stop-color="#E7EEFF"></stop><stop offset="1" stop-color="#E7EEFF" stop-opacity="0"></stop></linearGradient><linearGradient id="paint1_linear_1201_3533" x1="237" y1="423" x2="521" y2="423" gradientUnits="userSpaceOnUse"><stop stop-color="#C9F0DE"></stop><stop offset="1" stop-color="#E9FFF5" stop-opacity="0"></stop></linearGradient><linearGradient id="paint2_linear_1201_3533" x1="1105" y1="61.77" x2="1121.52" y2="61.77" gradientUnits="userSpaceOnUse"><stop stop-color="#1C38FF"></stop><stop offset="1" stop-color="#1C59FF"></stop></linearGradient><linearGradient id="paint3_linear_1201_3533" x1="1107.03" y1="72.51" x2="1107.25" y2="72.51" gradientUnits="userSpaceOnUse"><stop stop-color="#1C38FF"></stop><stop offset="1" stop-color="#1C59FF"></stop></linearGradient><linearGradient id="paint4_linear_1201_3533" x1="1119.27" y1="72.5099" x2="1119.48" y2="72.5099" gradientUnits="userSpaceOnUse"><stop stop-color="#1C38FF"></stop><stop offset="1" stop-color="#1C59FF"></stop></linearGradient><linearGradient id="paint5_linear_1201_3533" x1="1116.16" y1="53.68" x2="1121.15" y2="53.68" gradientUnits="userSpaceOnUse"><stop stop-color="#1C38FF"></stop><stop offset="1" stop-color="#1C59FF"></stop></linearGradient><clipPath id="clip0_1201_3533"><rect width="55" height="76" fill="white" transform="translate(217 385)"></rect></clipPath></defs></svg>