<svg xmlns="http://www.w3.org/2000/svg" width="224" height="29" viewBox="0 0 224 29" fill="none"><path fill-rule="evenodd" clip-rule="evenodd" d="M3.59814 13.5996L9.52575 25.5639C9.5654 25.6432 9.60505 25.7225 9.6447 25.8018V25.8117C10.517 27.4472 12.2418 28.5673 14.2242 28.5673C16.395 28.5673 18.2487 27.2291 19.0218 25.3458L27.9033 7.48366C27.0509 9.18859 25.2964 10.3583 23.2643 10.3583C22.0253 10.3583 20.8953 9.92211 20.0032 9.1985L16.623 6.83936L12.9158 13.8772C12.0435 15.5226 10.3187 16.6427 8.32636 16.6427C4.99579 16.6427 3.67744 13.7582 3.68736 13.7582C3.68736 13.7582 3.64771 13.6987 3.59814 13.5996Z" fill="#0E1B3D"></path><path fill-rule="evenodd" clip-rule="evenodd" d="M23.2643 0C26.129 0 28.4485 2.3195 28.4485 5.18418C28.4485 8.04886 26.129 10.3684 23.2643 10.3684C22.0253 10.3684 20.8953 9.93222 20.0032 9.20861L16.623 6.84946C17.3367 5.50138 17.9711 4.12355 18.665 2.79529C19.5274 1.13992 21.262 0 23.2643 0Z" fill="#00C274"></path><path fill-rule="evenodd" clip-rule="evenodd" d="M16.6231 6.84946L8.13807 0.931765C7.29552 0.346934 6.27454 0 5.17427 0C2.3195 0 0 2.3195 0 5.18418C0 6.21507 0.297372 7.16666 0.812816 7.97947C0.66413 7.75149 3.64776 13.7881 3.68741 13.7782C3.68741 13.7782 4.99584 16.6627 8.32641 16.6627C10.3188 16.6627 12.0436 15.5426 12.9158 13.8972L16.6231 6.85937V6.84946Z" fill="#1C59FF"></path><path d="M188.776 27.5538C188.132 28.1981 187.352 28.5277 186.438 28.5277C185.524 28.5277 184.745 28.1981 184.101 27.5538C183.457 26.9095 183.127 26.1304 183.127 25.2165C183.127 24.3025 183.457 23.5234 184.101 22.8792C184.745 22.2349 185.524 21.9053 186.438 21.9053C187.352 21.9053 188.132 22.2349 188.776 22.8792C189.42 23.5234 189.75 24.3025 189.75 25.2165C189.75 26.1304 189.42 26.9095 188.776 27.5538ZM218.382 28.0183V8.52568H223.416V28.0183H218.382ZM220.884 6.18837C220.045 6.18837 219.326 5.88872 218.726 5.27442C218.112 4.66013 217.812 3.94096 217.812 3.1169C217.812 2.29285 218.112 1.5587 218.726 0.92942C219.341 0.300143 220.06 0.000488281 220.884 0.000488281C221.708 0.000488281 222.472 0.315126 223.086 0.92942C223.701 1.5587 224 2.27787 224 3.1169C224 3.95594 223.701 4.67511 223.086 5.27442C222.472 5.88872 221.738 6.18837 220.884 6.18837ZM199.503 22.2349C200.522 23.2687 201.811 23.7781 203.369 23.7781C204.927 23.7781 206.216 23.2687 207.249 22.2349C208.283 21.2011 208.793 19.8826 208.793 18.2795C208.793 16.6763 208.283 15.3428 207.249 14.324C206.216 13.2902 204.927 12.7808 203.369 12.7808C201.811 12.7808 200.522 13.2902 199.503 14.324C198.485 15.3578 197.975 16.6763 197.975 18.2795C197.975 19.8826 198.485 21.2161 199.503 22.2349ZM208.793 8.52568H213.827V28.0183H208.793V25.7109C207.279 27.6137 205.167 28.5576 202.44 28.5576C199.713 28.5576 197.616 27.5688 195.758 25.5761C193.9 23.5834 192.971 21.1562 192.971 18.2645C192.971 15.3728 193.9 12.9456 195.758 10.9529C197.616 8.96018 199.848 7.97132 202.44 7.97132C205.167 7.97132 207.294 8.91523 208.793 10.818V8.5107V8.52568ZM171.86 7.97132C174.093 7.97132 175.891 8.70548 177.224 10.1588C178.557 11.6121 179.232 13.5599 179.232 16.0021V28.0183H174.198V16.3617C174.198 15.193 173.913 14.2791 173.344 13.6348C172.774 12.9905 171.965 12.6609 170.931 12.6609C169.793 12.6609 168.894 13.0355 168.264 13.7846C167.62 14.5338 167.305 15.6275 167.305 17.0659V28.0183H162.271V16.3617C162.271 15.193 161.987 14.2791 161.417 13.6348C160.848 12.9905 160.039 12.6609 159.005 12.6609C157.881 12.6609 156.997 13.0355 156.338 13.7846C155.679 14.5338 155.349 15.6275 155.349 17.0659V28.0183H150.315V8.52568H155.349V10.5933C156.518 8.8553 158.331 7.9863 160.773 7.9863C163.215 7.9863 164.938 8.91523 166.077 10.7881C167.38 8.91523 169.313 7.9863 171.89 7.9863L171.86 7.97132ZM140.651 8.52568H145.685V28.0183H140.651V25.8308C139.423 27.6437 137.49 28.5576 134.838 28.5576C132.71 28.5576 130.942 27.8385 129.549 26.4151C128.155 24.9917 127.466 23.014 127.466 20.4819V8.5107H132.5V19.8527C132.5 21.1562 132.845 22.145 133.549 22.8342C134.253 23.5234 135.182 23.868 136.351 23.868C137.655 23.868 138.688 23.4635 139.467 22.6544C140.247 21.8454 140.636 20.6467 140.636 19.0286V8.49572L140.651 8.52568ZM118.147 28.0183V8.52568H123.181V28.0183H118.147ZM120.649 6.18837C119.81 6.18837 119.091 5.88872 118.492 5.27442C117.877 4.66013 117.578 3.94096 117.578 3.1169C117.578 2.29285 117.877 1.5587 118.492 0.92942C119.106 0.300143 119.825 0.000488281 120.649 0.000488281C121.473 0.000488281 122.237 0.315126 122.852 0.92942C123.466 1.5587 123.766 2.27787 123.766 3.1169C123.766 3.95594 123.466 4.67511 122.852 5.27442C122.237 5.88872 121.503 6.18837 120.649 6.18837ZM99.2537 22.2349C100.288 23.2687 101.576 23.7781 103.134 23.7781C104.692 23.7781 105.981 23.2687 107 22.2349C108.019 21.2011 108.528 19.8826 108.528 18.2795C108.528 16.6763 108.019 15.3428 107 14.324C105.981 13.2902 104.692 12.7808 103.134 12.7808C101.576 12.7808 100.288 13.2902 99.2537 14.324C98.2199 15.3578 97.7105 16.6763 97.7105 18.2795C97.7105 19.8826 98.2199 21.2161 99.2537 22.2349ZM108.528 0.71966H113.562V28.0183H108.528V25.7109C107.045 27.6137 104.947 28.5576 102.205 28.5576C99.4635 28.5576 97.3359 27.5688 95.4781 25.5761C93.6202 23.5834 92.6913 21.1562 92.6913 18.2645C92.6913 15.3728 93.6202 12.9456 95.4781 10.9529C97.3359 8.96018 99.5833 7.97132 102.205 7.97132C104.827 7.97132 107.045 8.91523 108.528 10.818V0.71966ZM84.1061 28.0183V8.52568H89.1403V28.0183H84.1061ZM86.6082 6.18837C85.7692 6.18837 85.05 5.88872 84.4507 5.27442C83.8364 4.66013 83.5368 3.94096 83.5368 3.1169C83.5368 2.29285 83.8364 1.5587 84.4507 0.92942C85.065 0.300143 85.7842 0.000488281 86.6082 0.000488281C87.4323 0.000488281 88.1964 0.315126 88.8107 0.92942C89.425 1.5587 89.7247 2.27787 89.7247 3.1169C89.7247 3.95594 89.425 4.67511 88.8107 5.27442C88.1964 5.88872 87.4623 6.18837 86.6082 6.18837ZM75.2513 11.8818C75.7158 10.6383 76.4949 9.69434 77.5736 9.08004C78.6524 8.45077 79.851 8.15111 81.1845 8.15111V13.7696C79.6562 13.5899 78.2778 13.9045 77.0642 14.6986C75.8506 15.5076 75.2513 16.8411 75.2513 18.714V28.0332H70.2171V8.54066H75.2513V11.8968V11.8818ZM60.5832 28.0183V8.52568H65.6174V28.0183H60.5832ZM63.0853 6.18837C62.2463 6.18837 61.5271 5.88872 60.9278 5.27442C60.3135 4.66013 60.0138 3.94096 60.0138 3.1169C60.0138 2.29285 60.3135 1.5587 60.9278 0.92942C61.5421 0.300143 62.2612 0.000488281 63.0853 0.000488281C63.9094 0.000488281 64.6735 0.315126 65.2878 0.92942C65.9021 1.5587 66.2017 2.27787 66.2017 3.1169C66.2017 3.95594 65.9021 4.67511 65.2878 5.27442C64.6735 5.88872 63.9393 6.18837 63.0853 6.18837ZM52.6273 8.52568H58.171L50.7545 28.0183H45.0161L37.5996 8.52568H43.1432L47.8628 22.175L52.6123 8.52568H52.6273Z" fill="#0E1B3D"></path></svg>